<?xml version="1.0" encoding="utf-8"?>
<svg xmlns="http://www.w3.org/2000/svg" version="1.2" viewBox="0 0 2090.2 118.6">
	<title>Musical notation indicating the rhythm of the two lines starting with “Take me away.” Each measure has two quarter notes, except the first measure, which has one. The line consists of the following notes and rests: quarter note, stressed quarter note, quarter note, stressed quarter note, quarter rest, quarter rest, quarter note, stressed quarter note, quarter note, stressed quarter note, quarter note, stressed half note, quarter rest, quarter note, stressed quarter note, quarter note, stressed quarter note, quarter rest.</title>
	<g fill="none" stroke="#000" stroke-linejoin="bevel">
		<g stroke-width="4">
			<path class="BarLine" d="M110.73.33v102M338.45.33v102M568.51.33v102M798.57.33v102M1026.27.33v102M1253.97.33v102M1480.67.33v102M1710.67.33v102M1938.37.33v102"/>
		</g>
		<g stroke-linecap="round" stroke-width="3.25">
			<path class="Stem" d="M1.63 56.03v60.93M139.36 56.03v60.93M238.72 56.03v60.93M367.07 56.03v60.93M698.83 56.03v60.93M827.17 56.03v60.93M926.57 56.03v60.93M1054.87 56.03v60.93M1154.27 56.03v60.93M1283.47 55.25v61.71M1610.97 56.03v60.93M1739.27 56.03v60.93M1838.67 56.03v60.93M1967.07 56.03v60.93"/>
		</g>
	</g>
	<path class="Note" d="M21.969 37.563c3.125 0 5.766.812 7.922 2.437 2.01 1.761 3.016 3.974 3.016 6.641 0 4.49-2.308 8.688-6.922 12.594-4.688 3.906-9.703 5.859-15.047 5.859-3.125 0-5.761-.812-7.906-2.437C1.011 60.896 0 58.683 0 56.016c0-4.49 2.344-8.687 7.032-12.594 4.562-3.906 9.541-5.859 14.937-5.859M159.7 37.563c3.125 0 5.766.812 7.922 2.437 2.011 1.761 3.016 3.974 3.016 6.641 0 4.49-2.307 8.688-6.922 12.594-4.687 3.906-9.703 5.859-15.047 5.859-3.125 0-5.76-.812-7.906-2.437-2.021-1.761-3.031-3.974-3.031-6.641 0-4.49 2.343-8.687 7.031-12.594 4.562-3.906 9.542-5.859 14.937-5.859M259.06 37.563c3.125 0 5.766.812 7.922 2.437 2.01 1.761 3.015 3.974 3.015 6.641 0 4.49-2.307 8.688-6.921 12.594-4.688 3.906-9.704 5.859-15.047 5.859-3.125 0-5.761-.812-7.907-2.437-2.02-1.761-3.031-3.974-3.031-6.641 0-4.49 2.344-8.687 7.031-12.594 4.563-3.906 9.542-5.859 14.938-5.859M387.42 37.563c3.125 0 5.766.812 7.922 2.437 2.011 1.761 3.016 3.974 3.016 6.641 0 4.49-2.307 8.688-6.922 12.594-4.688 3.906-9.703 5.859-15.047 5.859-3.125 0-5.76-.812-7.906-2.437-2.021-1.761-3.031-3.974-3.031-6.641 0-4.49 2.343-8.687 7.031-12.594 4.562-3.906 9.541-5.859 14.937-5.859M719.18 37.563c3.125 0 5.766.812 7.922 2.437 2.01 1.761 3.016 3.974 3.016 6.641 0 4.49-2.308 8.688-6.922 12.594-4.688 3.906-9.703 5.859-15.047 5.859-3.125 0-5.761-.812-7.906-2.437-2.021-1.761-3.032-3.974-3.032-6.641 0-4.49 2.344-8.687 7.032-12.594 4.562-3.906 9.541-5.859 14.937-5.859M847.54 37.563c3.12 0 5.76.812 7.92 2.437 2.01 1.761 3.01 3.974 3.01 6.641 0 4.49-2.3 8.688-6.92 12.594-4.69 3.906-9.7 5.859-15.05 5.859-3.12 0-5.76-.812-7.9-2.437-2.02-1.761-3.03-3.974-3.03-6.641 0-4.49 2.34-8.687 7.03-12.594 4.56-3.906 9.54-5.859 14.94-5.859M946.89 37.563c3.13 0 5.77.812 7.92 2.437 2.02 1.761 3.02 3.974 3.02 6.641 0 4.49-2.31 8.688-6.92 12.594-4.69 3.906-9.7 5.859-15.05 5.859-3.12 0-5.76-.812-7.9-2.437-2.03-1.761-3.04-3.974-3.04-6.641 0-4.49 2.35-8.687 7.04-12.594 4.56-3.906 9.54-5.859 14.93-5.859M1075.2 37.563c3.13 0 5.77.812 7.92 2.437 2.01 1.761 3.02 3.974 3.02 6.641 0 4.49-2.31 8.688-6.92 12.594-4.69 3.906-9.71 5.859-15.05 5.859-3.13 0-5.76-.812-7.91-2.437-2.02-1.761-3.03-3.974-3.03-6.641 0-4.49 2.35-8.687 7.03-12.594 4.57-3.906 9.54-5.859 14.94-5.859M1174.6 37.563c3.12 0 5.76.812 7.92 2.437 2.01 1.761 3.02 3.974 3.02 6.641 0 4.49-2.31 8.688-6.93 12.594-4.68 3.906-9.7 5.859-15.04 5.859-3.13 0-5.76-.812-7.91-2.437-2.02-1.761-3.03-3.974-3.03-6.641 0-4.49 2.34-8.687 7.03-12.594 4.56-3.906 9.54-5.859 14.94-5.859M1313.4 44.782c0-1.104-.43-2.047-1.27-2.828-.85-.844-1.83-1.266-2.94-1.266-1.95 0-5.88 1.953-11.81 5.859-6.13 3.969-9.87 6.802-11.23 8.5-.72.907-1.08 1.849-1.08 2.828 0 1.105.42 2.047 1.28 2.829.78.843 1.75 1.265 2.92 1.265 1.89 0 5.86-1.953 11.92-5.859 5.99-3.906 9.7-6.74 11.13-8.5.72-.844 1.08-1.787 1.08-2.828m-5.18-7.219c5.6 0 8.39 2.406 8.39 7.219 0 2.343-.68 5.078-2.04 8.203-1.37 3.062-3.19 5.406-5.47 7.031-5.01 3.385-11.29 5.078-18.85 5.078-5.6 0-8.4-2.406-8.4-7.219 0-2.145.68-4.849 2.05-8.109 1.3-3.125 3.12-5.5 5.46-7.125 5.03-3.385 11.31-5.078 18.86-5.078M1631.3 37.563c3.13 0 5.77.812 7.92 2.437 2.02 1.761 3.02 3.974 3.02 6.641 0 4.49-2.31 8.688-6.92 12.594-4.69 3.906-9.7 5.859-15.05 5.859-3.12 0-5.76-.812-7.9-2.437-2.03-1.761-3.04-3.974-3.04-6.641 0-4.49 2.35-8.687 7.04-12.594 4.56-3.906 9.54-5.859 14.93-5.859M1759.7 37.563c3.13 0 5.77.812 7.92 2.437 2.01 1.761 3.02 3.974 3.02 6.641 0 4.49-2.31 8.688-6.92 12.594-4.69 3.906-9.71 5.859-15.05 5.859-3.13 0-5.76-.812-7.91-2.437-2.02-1.761-3.03-3.974-3.03-6.641 0-4.49 2.35-8.687 7.03-12.594 4.57-3.906 9.54-5.859 14.94-5.859M1859 37.563c3.12 0 5.76.812 7.92 2.437 2.01 1.761 3.02 3.974 3.02 6.641 0 4.49-2.31 8.688-6.93 12.594-4.68 3.906-9.7 5.859-15.04 5.859-3.13 0-5.76-.812-7.91-2.437-2.02-1.761-3.03-3.974-3.03-6.641 0-4.49 2.34-8.687 7.03-12.594 4.56-3.906 9.54-5.859 14.94-5.859M1987.4 37.563c3.12 0 5.76.812 7.92 2.437 2.01 1.761 3.01 3.974 3.01 6.641 0 4.49-2.3 8.688-6.92 12.594-4.69 3.906-9.7 5.859-15.05 5.859-3.12 0-5.76-.812-7.9-2.437-2.02-1.761-3.03-3.974-3.03-6.641 0-4.49 2.34-8.687 7.03-12.594 4.56-3.906 9.54-5.859 14.94-5.859"/>
	<path class="Rest" d="M465.38 43.516c0-1.177.656-2.479 1.969-3.906.969-1.042 2.401-2.281 4.297-3.719 1.427-.969 2.823-2.432 4.187-4.391 1.302-1.885 1.953-3.937 1.953-6.156 0-2.604-.843-4.911-2.531-6.922l-3.516-4.203c-.26-.26-.39-.586-.39-.976 0-.391.193-.748.578-1.071.458-.333.849-.5 1.172-.5.458 0 .818.198 1.078.594l15.141 17.969c.645.844.968 1.687.968 2.531 0 1.177-.651 2.479-1.953 3.906-.844.917-2.239 2.157-4.187 3.719-1.5.906-2.933 2.37-4.297 4.391-1.302 1.885-1.953 3.937-1.953 6.156 0 2.74.781 5.052 2.343 6.937l8.391 9.86c.198.198.359.526.484.984 0 .448-.161.839-.484 1.172-.458.323-.849.484-1.172.484-.125 0-.646-.359-1.562-1.078-.979-.781-2.282-1.531-3.907-2.25-1.822-.708-3.614-1.062-5.375-1.062-1.625 0-2.958.453-4 1.359-.906.917-1.359 2.677-1.359 5.281 0 3.969.943 7.094 2.828 9.375.198.261.229.584.094.969-.125.261-.354.391-.688.391-.447 0-1.453-1.172-3.015-3.516-1.636-2.469-3.167-5.302-4.594-8.5-1.5-3.385-2.25-6.182-2.25-8.39 0-2.803 1.333-4.204 4-4.204 3.063 0 7.037 1.042 11.922 3.125l-13.188-15.828c-.656-.843-.984-1.687-.984-2.531M597.26 43.516c0-1.177.656-2.479 1.969-3.906.969-1.042 2.401-2.281 4.297-3.719 1.427-.969 2.823-2.432 4.187-4.391 1.302-1.885 1.953-3.937 1.953-6.156 0-2.604-.843-4.911-2.531-6.922l-3.516-4.203c-.26-.26-.39-.586-.39-.976 0-.391.193-.748.578-1.071.458-.333.849-.5 1.172-.5.458 0 .818.198 1.078.594l15.141 17.969c.645.844.968 1.687.968 2.531 0 1.177-.651 2.479-1.953 3.906-.844.917-2.239 2.157-4.187 3.719-1.5.906-2.933 2.37-4.297 4.391-1.302 1.885-1.953 3.937-1.953 6.156 0 2.74.781 5.052 2.343 6.937l8.391 9.86c.198.198.359.526.484.984 0 .448-.161.839-.484 1.172-.458.323-.849.484-1.172.484-.125 0-.646-.359-1.562-1.078-.979-.781-2.282-1.531-3.907-2.25-1.822-.708-3.614-1.062-5.375-1.062-1.625 0-2.958.453-4 1.359-.906.917-1.359 2.677-1.359 5.281 0 3.969.943 7.094 2.828 9.375.198.261.229.584.094.969-.125.261-.354.391-.688.391-.447 0-1.453-1.172-3.015-3.516-1.636-2.469-3.167-5.302-4.594-8.5-1.5-3.385-2.25-6.182-2.25-8.39 0-2.803 1.333-4.204 4-4.204 3.063 0 7.037 1.042 11.922 3.125l-13.188-15.828c-.656-.843-.984-1.687-.984-2.531M1509.4 43.516c0-1.177.66-2.479 1.97-3.906.97-1.042 2.4-2.281 4.3-3.719 1.43-.969 2.82-2.432 4.19-4.391 1.3-1.885 1.95-3.937 1.95-6.156 0-2.604-.84-4.911-2.53-6.922l-3.52-4.203c-.26-.26-.39-.586-.39-.976 0-.391.19-.748.58-1.071.46-.333.85-.5 1.17-.5.46 0 .82.198 1.08.594l15.14 17.969c.65.844.97 1.687.97 2.531 0 1.177-.65 2.479-1.95 3.906-.85.917-2.24 2.157-4.19 3.719-1.5.906-2.93 2.37-4.3 4.391-1.3 1.885-1.95 3.937-1.95 6.156 0 2.74.78 5.052 2.34 6.937l8.39 9.86c.2.198.36.526.49.984 0 .448-.16.839-.49 1.172-.46.323-.85.484-1.17.484-.12 0-.64-.359-1.56-1.078-.98-.781-2.28-1.531-3.91-2.25-1.82-.708-3.61-1.062-5.37-1.062-1.63 0-2.96.453-4 1.359-.91.917-1.36 2.677-1.36 5.281 0 3.969.94 7.094 2.83 9.375.19.261.23.584.09.969-.13.261-.35.391-.69.391-.45 0-1.45-1.172-3.01-3.516-1.64-2.469-3.17-5.302-4.6-8.5-1.5-3.385-2.25-6.182-2.25-8.39 0-2.803 1.34-4.204 4-4.204 3.07 0 7.04 1.042 11.92 3.125l-13.18-15.828c-.66-.843-.99-1.687-.99-2.531M2065.3 43.516c0-1.177.66-2.479 1.97-3.906.97-1.042 2.4-2.281 4.3-3.719 1.42-.969 2.82-2.432 4.19-4.391 1.3-1.885 1.95-3.937 1.95-6.156 0-2.604-.85-4.911-2.53-6.922l-3.52-4.203c-.26-.26-.39-.586-.39-.976 0-.391.19-.748.58-1.071.46-.333.85-.5 1.17-.5.46 0 .82.198 1.08.594l15.14 17.969c.65.844.97 1.687.97 2.531 0 1.177-.65 2.479-1.95 3.906-.85.917-2.24 2.157-4.19 3.719-1.5.906-2.93 2.37-4.3 4.391-1.3 1.885-1.95 3.937-1.95 6.156 0 2.74.78 5.052 2.34 6.937l8.39 9.86c.2.198.36.526.49.984 0 .448-.17.839-.49 1.172-.46.323-.85.484-1.17.484-.12 0-.65-.359-1.56-1.078-.98-.781-2.28-1.531-3.91-2.25-1.82-.708-3.61-1.062-5.37-1.062-1.63 0-2.96.453-4 1.359-.91.917-1.36 2.677-1.36 5.281 0 3.969.94 7.094 2.83 9.375.19.261.22.584.09.969-.13.261-.36.391-.69.391-.45 0-1.45-1.172-3.01-3.516-1.64-2.469-3.17-5.302-4.6-8.5-1.5-3.385-2.25-6.182-2.25-8.39 0-2.803 1.34-4.204 4-4.204 3.06 0 7.04 1.042 11.92 3.125l-13.18-15.828c-.66-.843-.99-1.687-.99-2.531"/>
	<path class="Articulation" d="M174.8 10.829c1.24 0 1.86.617 1.86 1.851s-.62 1.852-1.86 1.852l-41.203 10.656c-.135.062-.333.094-.594.094-.843 0-1.265-.651-1.265-1.953 0-1.042.458-1.662 1.375-1.86l25.093-6.437 13.969-2.344-13.969-2.344-25.093-6.453c-.917-.198-1.375-.818-1.375-1.859 0-1.302.422-1.953 1.265-1.953.261 0 .459.036.594.109L174.8 10.829M402.51 10.829c1.24 0 1.859.617 1.859 1.851s-.619 1.852-1.859 1.852l-41.203 10.656c-.136.062-.333.094-.594.094-.844 0-1.266-.651-1.266-1.953 0-1.042.459-1.662 1.375-1.86l25.094-6.437 13.969-2.344-13.969-2.344-25.094-6.453c-.916-.198-1.375-.818-1.375-1.859 0-1.302.422-1.953 1.266-1.953.261 0 .458.036.594.109l41.203 10.641M862.63 10.829c1.24 0 1.86.617 1.86 1.851s-.62 1.852-1.86 1.852l-41.2 10.656c-.14.062-.33.094-.59.094-.85 0-1.27-.651-1.27-1.953 0-1.042.46-1.662 1.38-1.86l25.09-6.437 13.97-2.344-13.97-2.344-25.09-6.453c-.92-.198-1.38-.818-1.38-1.859 0-1.302.42-1.953 1.27-1.953.26 0 .45.036.59.109l41.2 10.641M1090.3 10.829c1.24 0 1.86.617 1.86 1.851s-.62 1.852-1.86 1.852l-41.21 10.656c-.13.062-.33.094-.59.094-.84 0-1.26-.651-1.26-1.953 0-1.042.45-1.662 1.37-1.86l25.09-6.437 13.97-2.344-13.97-2.344-25.09-6.453c-.92-.198-1.37-.818-1.37-1.859 0-1.302.42-1.953 1.26-1.953.26 0 .46.036.59.109l41.21 10.641M1319.9 10.75c1.24 0 1.86.618 1.86 1.852s-.62 1.852-1.86 1.852l-41.21 10.656c-.13.062-.33.094-.59.094-.84 0-1.27-.652-1.27-1.954 0-1.041.46-1.661 1.38-1.859l25.09-6.437 13.97-2.344-13.97-2.344-25.09-6.453c-.92-.198-1.38-.818-1.38-1.859 0-1.303.43-1.954 1.27-1.954.26 0 .46.037.59.11l41.21 10.64M1774.8 10.829c1.24 0 1.86.617 1.86 1.851s-.62 1.852-1.86 1.852l-41.21 10.656c-.13.062-.33.094-.59.094-.84 0-1.26-.651-1.26-1.953 0-1.042.45-1.662 1.37-1.86l25.09-6.437 13.97-2.344-13.97-2.344-25.09-6.453c-.92-.198-1.37-.818-1.37-1.859 0-1.302.42-1.953 1.26-1.953.26 0 .46.036.59.109l41.21 10.641M2002.5 10.829c1.24 0 1.86.617 1.86 1.851s-.62 1.852-1.86 1.852l-41.2 10.656c-.14.062-.33.094-.59.094-.85 0-1.27-.651-1.27-1.953 0-1.042.46-1.662 1.38-1.86l25.09-6.437 13.97-2.344-13.97-2.344-25.09-6.453c-.92-.198-1.38-.818-1.38-1.859 0-1.302.42-1.953 1.27-1.953.26 0 .45.036.59.109l41.2 10.641"/>
</svg>
