<?xml version="1.0" encoding="utf-8"?>
<svg xmlns="http://www.w3.org/2000/svg" version="1.2" viewBox="0 0 839.14 140.4">
	<title>Musical notation indicating the rhythm of the line. Each measure has three eighth notes. The line consists of the following notes and rests: stressed eighth note, eighth note, eighth note, stressed eighth note, eighth note, eighth note, stressed eighth note, eighth note, eighth note.</title>
	<g fill="none" stroke="#000" stroke-linejoin="bevel">
		<path class="BarLine" d="M286.33.25v102M593.67.25v102" stroke-width="4"/>
		<g stroke-linecap="round" stroke-width="3.25">
			<path class="Stem" d="M7.62 55.95v82.8M100.4 55.95v82.8M193.18 55.95v82.8M314.96 55.95v82.8M407.74 55.95v82.8M500.52 55.95v82.8M622.3 55.95v82.8M715.04 55.95v82.8M807.84 55.95v82.8"/>
		</g>
	</g>
	<path class="Note" d="M27.964 37.485c3.125 0 5.766.812 7.922 2.437 2.011 1.761 3.016 3.974 3.016 6.641 0 4.489-2.307 8.687-6.922 12.594-4.687 3.906-9.703 5.859-15.047 5.859-3.125 0-5.76-.813-7.906-2.438-2.021-1.76-3.031-3.974-3.031-6.64 0-4.49 2.343-8.688 7.031-12.594 4.562-3.906 9.542-5.859 14.937-5.859M120.74 37.485c3.125 0 5.766.812 7.922 2.437 2.01 1.761 3.016 3.974 3.016 6.641 0 4.489-2.308 8.687-6.922 12.594-4.688 3.906-9.703 5.859-15.047 5.859-3.125 0-5.76-.813-7.906-2.438-2.021-1.76-3.032-3.974-3.032-6.64 0-4.49 2.344-8.688 7.032-12.594 4.562-3.906 9.541-5.859 14.937-5.859M213.52 37.485c3.125 0 5.765.812 7.922 2.437 2.01 1.761 3.015 3.974 3.015 6.641 0 4.489-2.307 8.687-6.922 12.594-4.687 3.906-9.703 5.859-15.046 5.859-3.125 0-5.761-.813-7.907-2.438-2.02-1.76-3.031-3.974-3.031-6.64 0-4.49 2.344-8.688 7.031-12.594 4.563-3.906 9.542-5.859 14.938-5.859M335.3 37.485c3.125 0 5.765.812 7.921 2.437 2.011 1.761 3.016 3.974 3.016 6.641 0 4.489-2.307 8.687-6.922 12.594-4.687 3.906-9.703 5.859-15.047 5.859-3.125 0-5.76-.813-7.906-2.438-2.021-1.76-3.031-3.974-3.031-6.64 0-4.49 2.344-8.688 7.031-12.594 4.563-3.906 9.542-5.859 14.938-5.859M428.08 37.485c3.125 0 5.766.812 7.922 2.437 2.01 1.761 3.016 3.974 3.016 6.641 0 4.489-2.308 8.687-6.922 12.594-4.688 3.906-9.703 5.859-15.047 5.859-3.125 0-5.76-.813-7.906-2.438-2.021-1.76-3.032-3.974-3.032-6.64 0-4.49 2.344-8.688 7.032-12.594 4.562-3.906 9.541-5.859 14.937-5.859M520.86 37.485c3.125 0 5.765.812 7.922 2.437 2.01 1.761 3.015 3.974 3.015 6.641 0 4.489-2.307 8.687-6.922 12.594-4.687 3.906-9.703 5.859-15.046 5.859-3.125 0-5.761-.813-7.907-2.438-2.02-1.76-3.031-3.974-3.031-6.64 0-4.49 2.344-8.688 7.031-12.594 4.563-3.906 9.542-5.859 14.938-5.859M642.64 37.485c3.13 0 5.77.812 7.92 2.437 2.01 1.761 3.02 3.974 3.02 6.641 0 4.489-2.31 8.687-6.92 12.594-4.69 3.906-9.71 5.859-15.051 5.859-3.125 0-5.76-.813-7.906-2.438-2.021-1.76-3.031-3.974-3.031-6.64 0-4.49 2.344-8.688 7.031-12.594 4.563-3.906 9.537-5.859 14.937-5.859M735.42 37.485c3.13 0 5.77.812 7.92 2.437 2.01 1.761 3.02 3.974 3.02 6.641 0 4.489-2.31 8.687-6.92 12.594-4.69 3.906-9.71 5.859-15.05 5.859-3.13 0-5.76-.813-7.91-2.438-2.02-1.76-3.03-3.974-3.03-6.64 0-4.49 2.35-8.688 7.03-12.594 4.57-3.906 9.54-5.859 14.94-5.859M828.2 37.485c3.12 0 5.77.812 7.92 2.437 2.01 1.761 3.02 3.974 3.02 6.641 0 4.489-2.31 8.687-6.92 12.594-4.69 3.906-9.71 5.859-15.05 5.859-3.13 0-5.76-.813-7.91-2.438-2.02-1.76-3.03-3.974-3.03-6.64 0-4.49 2.34-8.688 7.03-12.594 4.56-3.906 9.54-5.859 14.94-5.859"/>
	<path class="Articulation" d="M43.062 10.75c1.24 0 1.86.617 1.86 1.852 0 1.234-.62 1.851-1.86 1.851L1.859 25.11c-.135.062-.333.093-.594.093C.422 25.203 0 24.552 0 23.25c0-1.041.458-1.661 1.375-1.859l25.093-6.438 13.969-2.343-13.969-2.344L1.375 3.813C.458 3.615 0 2.995 0 1.953 0 .651.422 0 1.265 0c.261 0 .459.037.594.11l41.203 10.64M350.4 10.75c1.24 0 1.86.617 1.86 1.852 0 1.234-.62 1.851-1.86 1.851L309.197 25.11c-.135.062-.333.093-.594.093-.843 0-1.265-.651-1.265-1.953 0-1.041.458-1.661 1.375-1.859l25.093-6.438 13.969-2.343-13.969-2.344-25.093-6.453c-.917-.198-1.375-.818-1.375-1.86 0-1.302.422-1.953 1.265-1.953.261 0 .459.037.594.11L350.4 10.75M657.74 10.75c1.24 0 1.86.617 1.86 1.852 0 1.234-.62 1.851-1.86 1.851L616.535 25.11c-.135.062-.333.093-.594.093-.843 0-1.265-.651-1.265-1.953 0-1.041.458-1.661 1.375-1.859l25.089-6.438 13.97-2.343-13.97-2.344-25.089-6.453c-.917-.198-1.375-.818-1.375-1.86 0-1.302.422-1.953 1.265-1.953.261 0 .459.037.594.11l41.205 10.64"/>
	<path class="Hook" d="M28.746 66.391c1.5 0 3.099 2.437 4.797 7.312 1.625 4.823 2.437 9.417 2.437 13.782 0 3.708-.911 7.385-2.734 11.031-1.886 3.906-4.13 7.292-6.735 10.156l-8.015 8.985c-2.469 2.864-4.683 6.182-6.641 9.953-1.823 3.645-2.734 7.359-2.734 11.14H5.996v-25h3.125c1.76-1.104 4.364-2.864 7.812-5.281 1.563-1.167 3.906-3.12 7.031-5.859 2.542-2.344 4.464-4.75 5.766-7.219 1.365-2.604 2.047-5.24 2.047-7.906 0-6.188-1.792-12.344-5.375-18.469v-.391c0-.583.198-1.067.594-1.453.521-.521 1.104-.781 1.75-.781M121.52 66.391c1.5 0 3.099 2.437 4.797 7.312 1.625 4.823 2.438 9.417 2.438 13.782 0 3.708-.912 7.385-2.735 11.031-1.885 3.906-4.13 7.292-6.734 10.156l-8.016 8.985c-2.468 2.864-4.682 6.182-6.64 9.953-1.823 3.645-2.735 7.359-2.735 11.14H98.77v-25h3.125c1.761-1.104 4.365-2.864 7.813-5.281 1.562-1.167 3.906-3.12 7.031-5.859 2.542-2.344 4.464-4.75 5.766-7.219 1.364-2.604 2.047-5.24 2.047-7.906 0-6.188-1.792-12.344-5.375-18.469v-.391c0-.583.198-1.067.593-1.453.521-.521 1.105-.781 1.75-.781M214.3 66.391c1.5 0 3.099 2.437 4.797 7.312 1.625 4.823 2.437 9.417 2.437 13.782 0 3.708-.911 7.385-2.734 11.031-1.885 3.906-4.13 7.292-6.734 10.156l-8.016 8.985c-2.469 2.864-4.682 6.182-6.641 9.953-1.822 3.645-2.734 7.359-2.734 11.14h-3.125v-25h3.125c1.761-1.104 4.365-2.864 7.813-5.281 1.562-1.167 3.906-3.12 7.031-5.859 2.542-2.344 4.463-4.75 5.765-7.219 1.365-2.604 2.047-5.24 2.047-7.906 0-6.188-1.791-12.344-5.375-18.469v-.391c0-.583.198-1.067.594-1.453.521-.521 1.104-.781 1.75-.781M336.08 66.391c1.5 0 3.099 2.437 4.797 7.312 1.625 4.823 2.437 9.417 2.437 13.782 0 3.708-.911 7.385-2.734 11.031-1.886 3.906-4.13 7.292-6.735 10.156l-8.015 8.985c-2.469 2.864-4.683 6.182-6.641 9.953-1.823 3.645-2.734 7.359-2.734 11.14h-3.125v-25h3.125c1.76-1.104 4.364-2.864 7.812-5.281 1.563-1.167 3.907-3.12 7.032-5.859 2.541-2.344 4.463-4.75 5.765-7.219 1.365-2.604 2.047-5.24 2.047-7.906 0-6.188-1.792-12.344-5.375-18.469v-.391c0-.583.198-1.067.594-1.453.521-.521 1.104-.781 1.75-.781M428.86 66.391c1.5 0 3.099 2.437 4.797 7.312 1.625 4.823 2.438 9.417 2.438 13.782 0 3.708-.912 7.385-2.735 11.031-1.885 3.906-4.13 7.292-6.734 10.156l-8.016 8.985c-2.468 2.864-4.682 6.182-6.64 9.953-1.823 3.645-2.735 7.359-2.735 11.14h-3.125v-25h3.125c1.761-1.104 4.365-2.864 7.813-5.281 1.562-1.167 3.906-3.12 7.031-5.859 2.542-2.344 4.464-4.75 5.766-7.219 1.364-2.604 2.047-5.24 2.047-7.906 0-6.188-1.792-12.344-5.375-18.469v-.391c0-.583.198-1.067.593-1.453.521-.521 1.105-.781 1.75-.781M521.64 66.391c1.5 0 3.099 2.437 4.797 7.312 1.625 4.823 2.437 9.417 2.437 13.782 0 3.708-.911 7.385-2.734 11.031-1.885 3.906-4.13 7.292-6.734 10.156l-8.016 8.985c-2.469 2.864-4.682 6.182-6.641 9.953-1.822 3.645-2.734 7.359-2.734 11.14h-3.125v-25h3.125c1.761-1.104 4.365-2.864 7.813-5.281 1.562-1.167 3.906-3.12 7.031-5.859 2.542-2.344 4.463-4.75 5.765-7.219 1.365-2.604 2.047-5.24 2.047-7.906 0-6.188-1.791-12.344-5.375-18.469v-.391c0-.583.198-1.067.594-1.453.521-.521 1.104-.781 1.75-.781M643.42 66.391c1.5 0 3.1 2.437 4.8 7.312 1.62 4.823 2.44 9.417 2.44 13.782 0 3.708-.92 7.385-2.74 11.031-1.88 3.906-4.13 7.292-6.73 10.156l-8.018 8.985c-2.469 2.864-4.683 6.182-6.641 9.953-1.823 3.645-2.734 7.359-2.734 11.14h-3.125v-25h3.125c1.76-1.104 4.364-2.864 7.812-5.281 1.563-1.167 3.907-3.12 7.031-5.859 2.54-2.344 4.46-4.75 5.77-7.219 1.36-2.604 2.04-5.24 2.04-7.906 0-6.188-1.79-12.344-5.37-18.469v-.391c0-.583.2-1.067.59-1.453.52-.521 1.11-.781 1.75-.781M736.2 66.391c1.5 0 3.1 2.437 4.8 7.312 1.62 4.823 2.44 9.417 2.44 13.782 0 3.708-.92 7.385-2.74 11.031-1.88 3.906-4.13 7.292-6.73 10.156l-8.02 8.985c-2.47 2.864-4.68 6.182-6.64 9.953-1.82 3.645-2.73 7.359-2.73 11.14h-3.13v-25h3.13c1.76-1.104 4.36-2.864 7.81-5.281 1.56-1.167 3.91-3.12 7.03-5.859 2.54-2.344 4.46-4.75 5.77-7.219 1.36-2.604 2.04-5.24 2.04-7.906 0-6.188-1.79-12.344-5.37-18.469v-.391c0-.583.2-1.067.59-1.453.52-.521 1.11-.781 1.75-.781M828.98 66.391c1.5 0 3.1 2.437 4.8 7.312 1.62 4.823 2.44 9.417 2.44 13.782 0 3.708-.92 7.385-2.74 11.031-1.88 3.906-4.13 7.292-6.73 10.156l-8.02 8.985c-2.47 2.864-4.68 6.182-6.64 9.953-1.82 3.645-2.73 7.359-2.73 11.14h-3.13v-25h3.13c1.76-1.104 4.36-2.864 7.81-5.281 1.56-1.167 3.9-3.12 7.03-5.859 2.54-2.344 4.46-4.75 5.77-7.219 1.36-2.604 2.04-5.24 2.04-7.906 0-6.188-1.79-12.344-5.37-18.469v-.391c0-.583.2-1.067.59-1.453.52-.521 1.11-.781 1.75-.781"/>
</svg>
