<?xml version="1.0" encoding="utf-8"?>
<svg xmlns="http://www.w3.org/2000/svg" version="1.2" viewBox="0 0 1356 141">
	<title>Musical notation indicating the rhythm of the line starting with “In my most loving arms.” Each measure has three eighth notes, except the last measure, which has two. The line consists of the following notes and rests: stressed eighth note, eighth note, eighth note, stressed eighth note, eighth note, eighth note, stressed eighth note, eighth note, eighth note, stressed eighth note, quarter note, eighth rest, eighth rest.</title>
	<g fill="none" stroke="#000" stroke-linejoin="bevel">
		<g stroke-width="4">
			<path class="BarLine" d="M279.54.25v102M580.08.25v102M880.66.25v102M1139.06.25v102M1353.86.25v102"/>
		</g>
		<g stroke-linecap="round" stroke-width="3.25">
			<path class="Stem" d="M7.62 55.95v82.8M98.13 55.95v82.8M188.65 55.95v82.8M608.7 55.95v82.8M699.22 55.95v82.8M789.73 55.95v82.8M909.26 55.95v82.8M997.46 55.95v60.93M308.16 55.95v82.8M398.67 55.95v82.8M489.19 55.95v82.8"/>
		</g>
	</g>
	<path class="Note" d="M27.965 37.484c3.125 0 5.766.812 7.922 2.437 2.01 1.761 3.016 3.974 3.016 6.641 0 4.49-2.308 8.688-6.922 12.594-4.688 3.906-9.703 5.859-15.047 5.859-3.125 0-5.761-.812-7.906-2.437-2.021-1.761-3.032-3.974-3.032-6.641 0-4.49 2.344-8.687 7.032-12.594 4.562-3.906 9.541-5.859 14.937-5.859M118.48 37.484c3.125 0 5.766.812 7.922 2.437 2.01 1.761 3.016 3.974 3.016 6.641 0 4.49-2.308 8.688-6.922 12.594-4.688 3.906-9.703 5.859-15.047 5.859-3.125 0-5.76-.812-7.906-2.437-2.021-1.761-3.032-3.974-3.032-6.641 0-4.49 2.344-8.687 7.032-12.594 4.562-3.906 9.541-5.859 14.937-5.859M208.99 37.484c3.125 0 5.766.812 7.922 2.437 2.011 1.761 3.016 3.974 3.016 6.641 0 4.49-2.307 8.688-6.922 12.594-4.688 3.906-9.703 5.859-15.047 5.859-3.125 0-5.76-.812-7.906-2.437-2.021-1.761-3.031-3.974-3.031-6.641 0-4.49 2.343-8.687 7.031-12.594 4.562-3.906 9.542-5.859 14.937-5.859M629.05 37.484c3.125 0 5.766.812 7.922 2.437 2.01 1.761 3.015 3.974 3.015 6.641 0 4.49-2.307 8.688-6.921 12.594-4.688 3.906-9.704 5.859-15.047 5.859-3.125 0-5.761-.812-7.907-2.437-2.02-1.761-3.031-3.974-3.031-6.641 0-4.49 2.344-8.687 7.031-12.594 4.563-3.906 9.542-5.859 14.938-5.859M719.56 37.484c3.125 0 5.766.812 7.922 2.437 2.01 1.761 3.016 3.974 3.016 6.641 0 4.49-2.308 8.688-6.922 12.594-4.688 3.906-9.703 5.859-15.047 5.859-3.125 0-5.761-.812-7.906-2.437-2.021-1.761-3.032-3.974-3.032-6.641 0-4.49 2.344-8.687 7.032-12.594 4.562-3.906 9.541-5.859 14.937-5.859M810.07 37.484c3.13 0 5.77.812 7.93 2.437 2.01 1.761 3.01 3.974 3.01 6.641 0 4.49-2.31 8.688-6.92 12.594-4.69 3.906-9.7 5.859-15.05 5.859-3.12 0-5.758-.812-7.903-2.437-2.021-1.761-3.032-3.974-3.032-6.641 0-4.49 2.344-8.687 7.035-12.594 4.56-3.906 9.54-5.859 14.93-5.859M929.59 37.484c3.12 0 5.76.812 7.92 2.437 2.01 1.761 3.02 3.974 3.02 6.641 0 4.49-2.31 8.688-6.93 12.594-4.68 3.906-9.7 5.859-15.04 5.859-3.13 0-5.76-.812-7.91-2.437-2.02-1.761-3.03-3.974-3.03-6.641 0-4.49 2.34-8.687 7.03-12.594 4.56-3.906 9.54-5.859 14.94-5.859M1017.8 37.484c3.13 0 5.77.812 7.93 2.437 2.01 1.761 3.01 3.974 3.01 6.641 0 4.49-2.3 8.688-6.92 12.594-4.69 3.906-9.7 5.859-15.05 5.859-3.12 0-5.76-.812-7.9-2.437-2.02-1.761-3.03-3.974-3.03-6.641 0-4.49 2.34-8.687 7.03-12.594 4.56-3.906 9.54-5.859 14.93-5.859M328.51 37.484c3.125 0 5.766.812 7.922 2.437 2.011 1.761 3.016 3.974 3.016 6.641 0 4.49-2.307 8.688-6.922 12.594-4.687 3.906-9.703 5.859-15.047 5.859-3.125 0-5.76-.812-7.906-2.437-2.021-1.761-3.031-3.974-3.031-6.641 0-4.49 2.343-8.687 7.031-12.594 4.562-3.906 9.542-5.859 14.937-5.859M419.02 37.484c3.125 0 5.765.812 7.921 2.437 2.011 1.761 3.016 3.974 3.016 6.641 0 4.49-2.307 8.688-6.922 12.594-4.687 3.906-9.703 5.859-15.047 5.859-3.125 0-5.76-.812-7.906-2.437-2.021-1.761-3.031-3.974-3.031-6.641 0-4.49 2.344-8.687 7.031-12.594 4.563-3.906 9.542-5.859 14.938-5.859M509.54 37.484c3.125 0 5.765.812 7.922 2.437 2.01 1.761 3.015 3.974 3.015 6.641 0 4.49-2.307 8.688-6.922 12.594-4.687 3.906-9.703 5.859-15.047 5.859-3.125 0-5.76-.812-7.906-2.437-2.021-1.761-3.031-3.974-3.031-6.641 0-4.49 2.344-8.687 7.031-12.594 4.563-3.906 9.542-5.859 14.938-5.859"/>
	<path class="Rest" d="M1173.6 30.734c1.89 0 3.32.521 4.3 1.562.98 1.178 1.5 2.287 1.56 3.329.14.979.46 2.083.99 3.312.58 1.042 1.32 1.563 2.23 1.563.72 0 1.8-.813 3.23-2.438 1.31-1.427 2.25-2.698 2.83-3.812.33-.646.78-.969 1.36-.969h.11c.65.062 1.1.385 1.36.969l-12.3 42c-.65.656-1.57.984-2.74.984s-2.08-.328-2.73-.984l11.72-32.625c-4.16 1.5-7.68 2.25-10.54 2.25-2.35 0-4.37-.75-6.07-2.25-1.76-1.428-2.64-3.313-2.64-5.657 0-2.021.72-3.713 2.16-5.078 1.43-1.437 3.15-2.156 5.17-2.156M1266.3 30.734c1.89 0 3.32.521 4.3 1.562.98 1.178 1.5 2.287 1.56 3.329.14.979.46 2.083.99 3.312.58 1.042 1.32 1.563 2.23 1.563.72 0 1.8-.813 3.23-2.438 1.31-1.427 2.25-2.698 2.83-3.812.33-.646.78-.969 1.36-.969h.11c.65.062 1.1.385 1.36.969l-12.3 42c-.65.656-1.57.984-2.74.984s-2.08-.328-2.73-.984l11.72-32.625c-4.16 1.5-7.68 2.25-10.54 2.25-2.35 0-4.37-.75-6.07-2.25-1.76-1.428-2.64-3.313-2.64-5.657 0-2.021.72-3.713 2.16-5.078 1.43-1.437 3.15-2.156 5.17-2.156"/>
	<path class="Articulation" d="M43.063 10.75c1.239 0 1.859.617 1.859 1.851s-.62 1.852-1.859 1.852L1.86 25.109c-.136.062-.334.094-.594.094C.422 25.203 0 24.552 0 23.25c0-1.042.459-1.662 1.375-1.86l25.094-6.437 13.969-2.344-13.969-2.344L1.375 3.812C.459 3.614 0 2.994 0 1.953 0 .651.422 0 1.266 0c.26 0 .458.036.594.109L43.063 10.75M644.15 10.75c1.239 0 1.859.617 1.859 1.851s-.62 1.852-1.859 1.852l-41.204 10.656c-.135.062-.333.094-.593.094-.844 0-1.266-.651-1.266-1.953 0-1.042.458-1.662 1.375-1.86l25.094-6.437 13.969-2.344-13.969-2.344-25.094-6.453c-.917-.198-1.375-.818-1.375-1.859 0-1.302.422-1.953 1.266-1.953.26 0 .458.036.593.109L644.15 10.75M944.69 10.75c1.24 0 1.86.617 1.86 1.851s-.62 1.852-1.86 1.852l-41.21 10.656c-.13.062-.33.094-.59.094-.84 0-1.27-.651-1.27-1.953 0-1.042.46-1.662 1.38-1.86l25.09-6.437 13.97-2.344-13.97-2.344L903 3.812c-.92-.198-1.38-.818-1.38-1.859 0-1.302.43-1.953 1.27-1.953.26 0 .46.036.59.109l41.21 10.641M343.6 10.75c1.24 0 1.86.617 1.86 1.851s-.62 1.852-1.86 1.852l-41.203 10.656c-.135.062-.333.094-.594.094-.843 0-1.265-.651-1.265-1.953 0-1.042.458-1.662 1.375-1.86l25.093-6.437 13.969-2.344-13.969-2.344-25.093-6.453c-.917-.198-1.375-.818-1.375-1.859 0-1.302.422-1.953 1.265-1.953.261 0 .459.036.594.109L343.6 10.75"/>
	<path class="Hook" d="M28.746 66.39c1.5 0 3.099 2.438 4.797 7.313 1.625 4.823 2.438 9.416 2.438 13.781 0 3.708-.912 7.385-2.735 11.031-1.885 3.906-4.13 7.292-6.734 10.156l-8.016 8.985c-2.468 2.864-4.682 6.182-6.64 9.953-1.823 3.646-2.735 7.359-2.735 11.141H5.996v-25h3.125c1.761-1.105 4.365-2.865 7.813-5.282 1.562-1.166 3.906-3.119 7.031-5.859 2.542-2.344 4.464-4.75 5.766-7.219 1.364-2.604 2.047-5.239 2.047-7.906 0-6.188-1.792-12.344-5.375-18.469v-.39c0-.584.197-1.068.593-1.454.521-.52 1.104-.781 1.75-.781M119.26 66.39c1.5 0 3.099 2.438 4.797 7.313 1.625 4.823 2.438 9.416 2.438 13.781 0 3.708-.912 7.385-2.735 11.031-1.885 3.906-4.13 7.292-6.734 10.156l-8.016 8.985c-2.468 2.864-4.682 6.182-6.64 9.953-1.823 3.646-2.735 7.359-2.735 11.141H96.51v-25h3.125c1.761-1.105 4.365-2.865 7.813-5.282 1.562-1.166 3.906-3.119 7.031-5.859 2.542-2.344 4.464-4.75 5.766-7.219 1.364-2.604 2.047-5.239 2.047-7.906 0-6.188-1.792-12.344-5.375-18.469v-.39c0-.584.198-1.068.593-1.454.521-.52 1.105-.781 1.75-.781M209.78 66.39c1.5 0 3.099 2.438 4.796 7.313 1.625 4.823 2.438 9.416 2.438 13.781 0 3.708-.911 7.385-2.734 11.031-1.886 3.906-4.131 7.292-6.735 10.156l-8.015 8.985c-2.469 2.864-4.683 6.182-6.641 9.953-1.823 3.646-2.734 7.359-2.734 11.141h-3.125v-25h3.125c1.76-1.105 4.364-2.865 7.812-5.282 1.563-1.166 3.906-3.119 7.031-5.859 2.542-2.344 4.464-4.75 5.766-7.219 1.365-2.604 2.047-5.239 2.047-7.906 0-6.188-1.792-12.344-5.375-18.469v-.39c0-.584.198-1.068.594-1.454.52-.52 1.104-.781 1.75-.781M629.83 66.39c1.5 0 3.099 2.438 4.797 7.313 1.625 4.823 2.438 9.416 2.438 13.781 0 3.708-.912 7.385-2.735 11.031-1.885 3.906-4.13 7.292-6.734 10.156l-8.016 8.985c-2.469 2.864-4.682 6.182-6.64 9.953-1.823 3.646-2.735 7.359-2.735 11.141h-3.125v-25h3.125c1.761-1.105 4.365-2.865 7.813-5.282 1.562-1.166 3.906-3.119 7.031-5.859 2.542-2.344 4.463-4.75 5.766-7.219 1.364-2.604 2.046-5.239 2.046-7.906 0-6.188-1.791-12.344-5.375-18.469v-.39c0-.584.198-1.068.594-1.454.521-.52 1.104-.781 1.75-.781M720.34 66.39c1.5 0 3.099 2.438 4.797 7.313 1.625 4.823 2.438 9.416 2.438 13.781 0 3.708-.912 7.385-2.735 11.031-1.885 3.906-4.13 7.292-6.734 10.156l-8.016 8.985c-2.468 2.864-4.682 6.182-6.64 9.953-1.823 3.646-2.735 7.359-2.735 11.141h-3.125v-25h3.125c1.761-1.105 4.365-2.865 7.813-5.282 1.562-1.166 3.906-3.119 7.031-5.859 2.542-2.344 4.464-4.75 5.766-7.219 1.364-2.604 2.047-5.239 2.047-7.906 0-6.188-1.792-12.344-5.375-18.469v-.39c0-.584.197-1.068.593-1.454.521-.52 1.104-.781 1.75-.781M810.86 66.39c1.5 0 3.09 2.438 4.79 7.313 1.63 4.823 2.44 9.416 2.44 13.781 0 3.708-.91 7.385-2.73 11.031-1.89 3.906-4.13 7.292-6.74 10.156l-8.01 8.985c-2.47 2.864-4.69 6.182-6.645 9.953-1.823 3.646-2.735 7.359-2.735 11.141h-3.125v-25h3.125c1.761-1.105 4.36-2.865 7.81-5.282 1.57-1.166 3.91-3.119 7.03-5.859 2.55-2.344 4.47-4.75 5.77-7.219 1.36-2.604 2.05-5.239 2.05-7.906 0-6.188-1.8-12.344-5.38-18.469v-.39c0-.584.2-1.068.6-1.454.52-.52 1.1-.781 1.75-.781M930.37 66.39c1.5 0 3.1 2.438 4.8 7.313 1.62 4.823 2.43 9.416 2.43 13.781 0 3.708-.91 7.385-2.73 11.031-1.89 3.906-4.13 7.292-6.73 10.156l-8.02 8.985c-2.47 2.864-4.68 6.182-6.64 9.953-1.82 3.646-2.74 7.359-2.74 11.141h-3.12v-25h3.12c1.76-1.105 4.37-2.865 7.82-5.282 1.56-1.166 3.9-3.119 7.03-5.859 2.54-2.344 4.46-4.75 5.76-7.219 1.37-2.604 2.05-5.239 2.05-7.906 0-6.188-1.79-12.344-5.37-18.469v-.39c0-.584.19-1.068.59-1.454.52-.52 1.1-.781 1.75-.781M329.29 66.39c1.5 0 3.099 2.438 4.797 7.313 1.625 4.823 2.437 9.416 2.437 13.781 0 3.708-.911 7.385-2.734 11.031-1.886 3.906-4.13 7.292-6.735 10.156l-8.015 8.985c-2.469 2.864-4.683 6.182-6.641 9.953-1.823 3.646-2.734 7.359-2.734 11.141h-3.125v-25h3.125c1.76-1.105 4.364-2.865 7.812-5.282 1.563-1.166 3.906-3.119 7.031-5.859 2.542-2.344 4.464-4.75 5.766-7.219 1.365-2.604 2.047-5.239 2.047-7.906 0-6.188-1.792-12.344-5.375-18.469v-.39c0-.584.198-1.068.594-1.454.521-.52 1.104-.781 1.75-.781M419.8 66.39c1.5 0 3.099 2.438 4.797 7.313 1.625 4.823 2.437 9.416 2.437 13.781 0 3.708-.911 7.385-2.734 11.031-1.886 3.906-4.13 7.292-6.735 10.156l-8.015 8.985c-2.469 2.864-4.682 6.182-6.641 9.953-1.823 3.646-2.734 7.359-2.734 11.141h-3.125v-25h3.125c1.76-1.105 4.364-2.865 7.812-5.282 1.563-1.166 3.907-3.119 7.032-5.859 2.541-2.344 4.463-4.75 5.765-7.219 1.365-2.604 2.047-5.239 2.047-7.906 0-6.188-1.792-12.344-5.375-18.469v-.39c0-.584.198-1.068.594-1.454.521-.52 1.104-.781 1.75-.781M510.32 66.39c1.5 0 3.099 2.438 4.797 7.313 1.625 4.823 2.437 9.416 2.437 13.781 0 3.708-.911 7.385-2.734 11.031-1.885 3.906-4.13 7.292-6.734 10.156l-8.016 8.985c-2.469 2.864-4.682 6.182-6.641 9.953-1.823 3.646-2.734 7.359-2.734 11.141h-3.125v-25h3.125c1.76-1.105 4.365-2.865 7.812-5.282 1.563-1.166 3.907-3.119 7.032-5.859 2.541-2.344 4.463-4.75 5.765-7.219 1.365-2.604 2.047-5.239 2.047-7.906 0-6.188-1.791-12.344-5.375-18.469v-.39c0-.584.198-1.068.594-1.454.521-.52 1.104-.781 1.75-.781"/>
</svg>
