<?xml version="1.0" encoding="utf-8"?>
<svg xmlns="http://www.w3.org/2000/svg" viewBox="0 0 262.05 80.194">
	<title>Musical notation indicating the rhythm of the two lines starting with “Praise the Holiest in the height.” Each line has three measures, and each measure has three eighth notes, except the second measure of the second line. The first line consists of the following notes and rests: stressed eighth note, eighth note, eighth note, stressed eighth note, eighth note, eighth note, stressed eighth note, eighth note, eighth note. The second line consists of the following notes and rests: stressed eighth note, eighth note, eighth note, stressed quarter note, quarter note, quarter note, eighth rest, eighth rest, eighth rest.</title>
	<g fill="none" stroke="#000" stroke-linejoin="bevel">
		<path class="BarLine" d="M75.757.066v26.987M157.073.066v26.987" stroke-width="1.05832"/>
		<path class="Stem" d="M2.016 14.803V36.71m24.548-21.907V36.71m24.548-21.907V36.71m32.22-21.907V36.71m24.548-21.907V36.71m24.548-21.907V36.71m32.22-21.907V36.71m24.537-21.907V36.71m24.553-21.907V36.71" stroke-linecap="round" stroke-width=".8598849999999999"/>
	</g>
	<path class="Note" d="M7.399 9.918c.827 0 1.525.215 2.096.645.532.465.798 1.051.798 1.757 0 1.187-.61 2.298-1.832 3.332-1.24 1.033-2.567 1.55-3.98 1.55-.828 0-1.525-.215-2.093-.645a2.231 2.231 0 01-.802-1.757c0-1.188.62-2.299 1.86-3.332 1.208-1.033 2.525-1.55 3.953-1.55m24.546 0c.827 0 1.526.215 2.096.645.532.465.798 1.051.798 1.757 0 1.187-.61 2.298-1.831 3.332-1.24 1.033-2.567 1.55-3.981 1.55-.827 0-1.524-.215-2.092-.645a2.232 2.232 0 01-.802-1.757c0-1.188.62-2.299 1.86-3.332 1.207-1.033 2.525-1.55 3.952-1.55m24.548 0c.827 0 1.525.215 2.096.645.532.465.798 1.051.798 1.757 0 1.187-.61 2.298-1.832 3.332-1.24 1.033-2.567 1.55-3.98 1.55-.827 0-1.525-.215-2.092-.645a2.232 2.232 0 01-.802-1.757c0-1.188.62-2.299 1.86-3.332 1.207-1.033 2.524-1.55 3.952-1.55m32.22 0c.827 0 1.526.215 2.096.645.532.465.798 1.051.798 1.757 0 1.187-.61 2.298-1.831 3.332-1.24 1.033-2.567 1.55-3.981 1.55-.827 0-1.524-.215-2.092-.645a2.231 2.231 0 01-.802-1.757c0-1.188.62-2.299 1.86-3.332 1.208-1.033 2.525-1.55 3.953-1.55m24.547 0c.827 0 1.526.215 2.096.645.532.465.798 1.051.798 1.757 0 1.187-.61 2.298-1.831 3.332-1.24 1.033-2.567 1.55-3.981 1.55-.827 0-1.524-.215-2.092-.645a2.232 2.232 0 01-.802-1.757c0-1.188.62-2.299 1.86-3.332 1.207-1.033 2.525-1.55 3.952-1.55m24.548 0c.827 0 1.525.215 2.096.645.532.465.798 1.051.798 1.757 0 1.187-.61 2.298-1.832 3.332-1.24 1.033-2.567 1.55-3.98 1.55-.827 0-1.525-.215-2.092-.645a2.232 2.232 0 01-.802-1.757c0-1.188.62-2.299 1.86-3.332 1.207-1.033 2.524-1.55 3.952-1.55m32.22 0c.829 0 1.527.215 2.096.645.532.465.8 1.051.8 1.757 0 1.187-.612 2.298-1.832 3.332-1.24 1.033-2.569 1.55-3.982 1.55-.827 0-1.524-.215-2.092-.645a2.231 2.231 0 01-.802-1.757c0-1.188.62-2.299 1.86-3.332 1.208-1.033 2.524-1.55 3.953-1.55m24.547 0c.829 0 1.527.215 2.096.645.532.465.799 1.051.799 1.757 0 1.187-.611 2.298-1.831 3.332-1.24 1.033-2.569 1.55-3.982 1.55-.828 0-1.524-.215-2.093-.645a2.232 2.232 0 01-.801-1.757c0-1.188.621-2.299 1.86-3.332 1.209-1.033 2.524-1.55 3.952-1.55m24.548 0c.826 0 1.527.215 2.096.645.531.465.799 1.051.799 1.757 0 1.187-.612 2.298-1.831 3.332-1.241 1.033-2.57 1.55-3.982 1.55-.828 0-1.524-.215-2.093-.645a2.232 2.232 0 01-.802-1.757c0-1.188.62-2.299 1.86-3.332 1.207-1.033 2.524-1.55 3.953-1.55"/>
	<path class="Articulation" d="M11.393 2.844c.328 0 .492.163.492.49 0 .327-.164.49-.492.49L.492 6.644a.39.39 0 01-.157.024C.112 6.668 0 6.496 0 6.151c0-.275.121-.439.364-.491l6.639-1.704 3.696-.62-3.696-.62L.363 1.01C.122.956 0 .792 0 .517 0 .172.112 0 .335 0c.069 0 .121.01.157.03l10.901 2.814m81.316 0c.328 0 .492.163.492.49 0 .327-.164.49-.492.49l-10.901 2.82a.39.39 0 01-.157.024c-.223 0-.335-.172-.335-.517 0-.275.121-.439.364-.491l6.639-1.704 3.696-.62-3.696-.62-6.64-1.707c-.242-.053-.363-.217-.363-.492 0-.345.112-.517.335-.517.069 0 .121.01.157.03l10.901 2.814m81.316 0c.328 0 .492.163.492.49 0 .327-.164.49-.492.49l-10.902 2.82a.39.39 0 01-.157.024c-.223 0-.334-.172-.334-.517 0-.275.12-.439.363-.491l6.638-1.704 3.697-.62-3.697-.62-6.638-1.707c-.242-.053-.363-.217-.363-.492 0-.345.111-.517.334-.517.07 0 .122.01.157.03l10.902 2.814"/>
	<path class="Hook" d="M7.606 17.566c.396 0 .82.645 1.269 1.934.43 1.276.645 2.492.645 3.647 0 .98-.241 1.954-.724 2.918-.499 1.034-1.092 1.93-1.782 2.687l-2.12 2.378a13.633 13.633 0 00-1.757 2.633c-.483.964-.724 1.947-.724 2.947h-.827v-6.614h.827a53.488 53.488 0 002.067-1.397c.414-.309 1.034-.826 1.86-1.55.673-.62 1.181-1.257 1.526-1.91.361-.69.542-1.387.542-2.092 0-1.637-.475-3.266-1.423-4.887v-.103c0-.154.053-.283.158-.385a.64.64 0 01.463-.206m24.546 0c.397 0 .82.645 1.269 1.934.43 1.276.645 2.492.645 3.647 0 .98-.241 1.954-.724 2.918-.498 1.034-1.092 1.93-1.781 2.687L29.44 31.13a13.644 13.644 0 00-1.757 2.633c-.482.964-.724 1.947-.724 2.947h-.826v-6.614h.826a53.242 53.242 0 002.068-1.397c.413-.309 1.033-.826 1.86-1.55.672-.62 1.18-1.257 1.525-1.91.361-.69.542-1.387.542-2.092 0-1.637-.474-3.266-1.422-4.887v-.103c0-.154.052-.283.157-.385a.64.64 0 01.463-.206m24.547 0c.397 0 .82.645 1.27 1.934.43 1.276.644 2.492.644 3.647 0 .98-.24 1.954-.723 2.918-.499 1.034-1.093 1.93-1.782 2.687l-2.12 2.378a13.645 13.645 0 00-1.758 2.633c-.482.964-.723 1.947-.723 2.947h-.827v-6.614h.827a53.242 53.242 0 002.067-1.397c.414-.309 1.034-.826 1.86-1.55.673-.62 1.181-1.257 1.526-1.91.361-.69.541-1.387.541-2.092 0-1.637-.473-3.266-1.422-4.887v-.103c0-.154.053-.283.157-.385a.64.64 0 01.463-.206m32.221 0c.397 0 .82.645 1.27 1.934.43 1.276.644 2.492.644 3.647 0 .98-.241 1.954-.723 2.918-.5 1.034-1.093 1.93-1.782 2.687l-2.12 2.378a13.633 13.633 0 00-1.758 2.633c-.482.964-.723 1.947-.723 2.947H82.9v-6.614h.827a53.488 53.488 0 002.067-1.397c.413-.309 1.033-.826 1.86-1.55.672-.62 1.18-1.257 1.525-1.91.362-.69.542-1.387.542-2.092 0-1.637-.474-3.266-1.422-4.887v-.103c0-.154.052-.283.157-.385a.64.64 0 01.463-.206m24.548 0c.397 0 .82.645 1.269 1.934.43 1.276.645 2.492.645 3.647 0 .98-.241 1.954-.724 2.918-.498 1.034-1.092 1.93-1.781 2.687l-2.121 2.378a13.644 13.644 0 00-1.757 2.633c-.482.964-.724 1.947-.724 2.947h-.826v-6.614h.826a53.242 53.242 0 002.068-1.397c.413-.309 1.033-.826 1.86-1.55.672-.62 1.18-1.257 1.525-1.91.361-.69.542-1.387.542-2.092 0-1.637-.474-3.266-1.422-4.887v-.103c0-.154.052-.283.157-.385a.64.64 0 01.463-.206m24.548 0c.396 0 .82.645 1.269 1.934.43 1.276.644 2.492.644 3.647 0 .98-.24 1.954-.723 2.918-.499 1.034-1.093 1.93-1.782 2.687l-2.12 2.378a13.645 13.645 0 00-1.758 2.633c-.482.964-.723 1.947-.723 2.947h-.827v-6.614h.827a53.242 53.242 0 002.067-1.397c.414-.309 1.034-.826 1.86-1.55.673-.62 1.181-1.257 1.526-1.91.361-.69.541-1.387.541-2.092 0-1.637-.473-3.266-1.422-4.887v-.103c0-.154.053-.283.157-.385a.64.64 0 01.464-.206m32.22 0c.397 0 .82.645 1.27 1.934.429 1.276.646 2.492.646 3.647 0 .98-.244 1.954-.725 2.918a11.183 11.183 0 01-1.78 2.687l-2.122 2.378a13.633 13.633 0 00-1.757 2.633c-.483.964-.724 1.947-.724 2.947h-.827v-6.614h.827a53.488 53.488 0 002.067-1.397c.414-.309 1.034-.826 1.86-1.55.672-.62 1.18-1.257 1.527-1.91.36-.69.54-1.387.54-2.092 0-1.637-.474-3.266-1.421-4.887v-.103a.52.52 0 01.156-.385.642.642 0 01.463-.206m24.548 0c.397 0 .82.645 1.27 1.934.428 1.276.645 2.492.645 3.647 0 .98-.243 1.954-.725 2.918a11.183 11.183 0 01-1.78 2.687l-2.122 2.378a13.644 13.644 0 00-1.757 2.633c-.481.964-.722 1.947-.722 2.947h-.828v-6.614h.828a53.987 53.987 0 002.066-1.397c.413-.309 1.035-.826 1.86-1.55.672-.62 1.18-1.257 1.527-1.91.36-.69.54-1.387.54-2.092 0-1.637-.474-3.266-1.421-4.887v-.103a.52.52 0 01.156-.385.642.642 0 01.463-.206m24.548 0c.396 0 .82.645 1.27 1.934.428 1.276.645 2.492.645 3.647 0 .98-.243 1.954-.725 2.918a11.183 11.183 0 01-1.78 2.687l-2.122 2.378a13.644 13.644 0 00-1.757 2.633c-.482.964-.723 1.947-.723 2.947h-.828v-6.614h.828a53.987 53.987 0 002.067-1.397c.413-.309 1.032-.826 1.86-1.55.672-.62 1.18-1.257 1.526-1.91.36-.69.54-1.387.54-2.092 0-1.637-.473-3.266-1.42-4.887v-.103a.52.52 0 01.156-.385.642.642 0 01.463-.206"/>
	<g>
		<g fill="none" stroke="#000" stroke-linejoin="bevel">
			<g stroke-width="4">
				<path class="BarLine" d="M72.106 43.12v26.986M183.708 43.12v26.986M261.521 43.12v26.986" stroke-width="1.05832"/>
			</g>
			<g stroke-linecap="round" stroke-width="3.25">
				<path class="Stem" d="M2.016 57.856v21.908M25.347 57.856v21.908M48.677 57.856v21.908M79.68 57.856v16.121M114.325 57.856v16.121M148.972 57.856v16.121" stroke-width=".8598849999999999"/>
			</g>
		</g>
		<path class="Note" d="M7.399 52.97c.827 0 1.525.216 2.096.646.532.466.798 1.051.798 1.757 0 1.187-.61 2.298-1.832 3.332-1.24 1.033-2.567 1.55-3.98 1.55-.828 0-1.525-.215-2.093-.645a2.231 2.231 0 01-.802-1.757c0-1.188.62-2.298 1.86-3.332 1.208-1.033 2.525-1.55 3.953-1.55M30.728 52.97c.827 0 1.526.216 2.096.646.532.466.798 1.051.798 1.757 0 1.187-.61 2.298-1.831 3.332-1.24 1.033-2.567 1.55-3.981 1.55-.827 0-1.524-.215-2.092-.645a2.231 2.231 0 01-.802-1.757c0-1.188.62-2.298 1.86-3.332 1.207-1.033 2.525-1.55 3.952-1.55M54.059 52.97c.827 0 1.526.216 2.096.646.532.466.798 1.051.798 1.757 0 1.187-.61 2.298-1.831 3.332-1.24 1.033-2.568 1.55-3.982 1.55-.826 0-1.524-.215-2.091-.645a2.232 2.232 0 01-.803-1.757c0-1.188.62-2.298 1.861-3.332 1.207-1.033 2.524-1.55 3.952-1.55M85.062 52.97c.827 0 1.526.216 2.096.646.532.466.798 1.051.798 1.757 0 1.187-.61 2.298-1.831 3.332-1.24 1.033-2.567 1.55-3.981 1.55-.827 0-1.524-.215-2.092-.645a2.232 2.232 0 01-.802-1.757c0-1.188.62-2.298 1.86-3.332 1.207-1.033 2.525-1.55 3.952-1.55M119.71 52.97c.826 0 1.525.216 2.095.646.532.466.798 1.051.798 1.757 0 1.187-.61 2.298-1.831 3.332-1.24 1.033-2.567 1.55-3.981 1.55-.827 0-1.524-.215-2.092-.645a2.231 2.231 0 01-.802-1.757c0-1.188.62-2.298 1.86-3.332 1.207-1.033 2.525-1.55 3.952-1.55M154.356 52.97c.827 0 1.526.216 2.096.646.532.466.798 1.051.798 1.757 0 1.187-.61 2.298-1.831 3.332-1.24 1.033-2.568 1.55-3.982 1.55-.826 0-1.524-.215-2.092-.645a2.232 2.232 0 01-.802-1.757c0-1.188.62-2.298 1.86-3.332 1.208-1.033 2.525-1.55 3.953-1.55"/>
		<path class="Rest" d="M192.852 51.185c.5 0 .879.138 1.138.413.26.312.397.605.413.88.037.26.122.552.26.877.155.276.351.414.592.414.19 0 .476-.215.854-.645.347-.378.596-.714.75-1.009.084-.171.205-.256.359-.256h.029a.41.41 0 01.36.256l-3.254 11.112c-.172.174-.416.26-.725.26s-.55-.086-.723-.26l3.101-8.632c-1.1.397-2.032.596-2.789.596a2.345 2.345 0 01-1.606-.596c-.465-.377-.698-.876-.698-1.496 0-.535.19-.983.571-1.344.379-.38.834-.57 1.368-.57M216.183 51.185c.5 0 .878.138 1.138.413.259.312.397.605.412.88.038.26.122.552.26.877.156.276.352.414.592.414.19 0 .477-.215.855-.645.347-.378.595-.714.749-1.009.084-.171.206-.256.36-.256h.029a.41.41 0 01.36.256l-3.255 11.112c-.172.174-.415.26-.725.26s-.55-.086-.722-.26l3.1-8.632c-1.1.397-2.031.596-2.788.596a2.345 2.345 0 01-1.606-.596c-.466-.377-.698-.876-.698-1.496 0-.535.19-.983.571-1.344.378-.38.834-.57 1.368-.57M239.514 51.185c.5 0 .878.138 1.137.413.26.312.397.605.413.88.037.26.122.552.26.877.156.276.351.414.592.414.19 0 .476-.215.855-.645.344-.378.595-.714.748-1.009.085-.171.207-.256.36-.256h.03a.41.41 0 01.36.256l-3.255 11.112c-.172.174-.416.26-.725.26s-.55-.086-.722-.26l3.1-8.632c-1.1.397-2.031.596-2.788.596a2.345 2.345 0 01-1.606-.596c-.466-.377-.699-.876-.699-1.496 0-.535.19-.983.572-1.344.378-.38.833-.57 1.368-.57"/>
		<path class="Articulation" d="M11.393 45.897c.328 0 .492.164.492.49 0 .327-.164.49-.492.49L.492 49.697a.39.39 0 01-.157.024c-.223 0-.335-.172-.335-.516 0-.276.121-.44.364-.492l6.64-1.704 3.695-.62-3.696-.62-6.64-1.707C.122 44.01 0 43.846 0 43.57c0-.345.112-.517.335-.517.069 0 .121.01.157.03l10.901 2.814M89.058 45.897c.327 0 .491.164.491.49 0 .327-.164.49-.491.49l-10.902 2.82a.39.39 0 01-.157.024c-.223 0-.335-.172-.335-.516 0-.276.121-.44.364-.492l6.64-1.704 3.695-.62-3.696-.62-6.64-1.707c-.242-.052-.363-.216-.363-.492 0-.345.112-.517.335-.517.069 0 .121.01.157.03l10.902 2.814"/>
		<path class="Hook" d="M7.606 60.619c.396 0 .82.645 1.269 1.934.43 1.277.645 2.492.645 3.647 0 .98-.241 1.954-.724 2.918-.499 1.034-1.092 1.93-1.782 2.688l-2.12 2.377a13.645 13.645 0 00-1.757 2.633c-.483.965-.724 1.947-.724 2.948h-.827v-6.615h.827a53.488 53.488 0 002.067-1.397c.414-.309 1.034-.826 1.86-1.55.673-.62 1.181-1.257 1.526-1.91.361-.69.542-1.387.542-2.092 0-1.637-.475-3.266-1.423-4.887v-.103c0-.154.053-.282.158-.385a.64.64 0 01.463-.206M30.937 60.619c.397 0 .82.645 1.27 1.934.43 1.277.644 2.492.644 3.647 0 .98-.24 1.954-.723 2.918-.499 1.034-1.093 1.93-1.782 2.688l-2.12 2.377a13.633 13.633 0 00-1.758 2.633c-.482.965-.723 1.947-.723 2.948h-.827v-6.615h.827a53.488 53.488 0 002.067-1.397c.413-.309 1.033-.826 1.86-1.55.673-.62 1.181-1.257 1.526-1.91.36-.69.541-1.387.541-2.092 0-1.637-.474-3.266-1.422-4.887v-.103c0-.154.053-.282.157-.385a.64.64 0 01.463-.206M54.265 60.619c.397 0 .82.645 1.27 1.934.43 1.277.645 2.492.645 3.647 0 .98-.242 1.954-.724 2.918-.499 1.034-1.093 1.93-1.782 2.688l-2.12 2.377a13.644 13.644 0 00-1.757 2.633c-.483.965-.724 1.947-.724 2.948h-.827v-6.615h.827a53.242 53.242 0 002.067-1.397c.413-.309 1.034-.826 1.86-1.55.673-.62 1.181-1.257 1.526-1.91.36-.69.542-1.387.542-2.092 0-1.637-.475-3.266-1.423-4.887v-.103c0-.154.053-.282.157-.385a.64.64 0 01.463-.206"/>
	</g>
</svg>
