<?xml version="1.0" encoding="utf-8"?>
<svg xmlns="http://www.w3.org/2000/svg" version="1.2" viewBox="0 0 990.41 140.4">
	<title>Musical notation indicating the rhythm of the line. Each measure has three eighth notes, except the second measure, which has six. The line consists of the following notes and rests: stressed eighth note, eighth note, eighth note, stressed quarter note, quarter note, quarter note, eighth rest, eighth rest, eighth rest.</title>
	<g fill="none" stroke="#000" stroke-linejoin="bevel">
		<g stroke-width="4">
			<path class="BarLine" d="M272.53.25v102M694.34.25v102M988.44.25v102"/>
		</g>
		<g stroke-linecap="round" stroke-width="3.25">
			<path class="Stem" d="M7.62 55.95v82.8M95.8 55.95v82.8M183.98 55.95v82.8M301.16 55.95v60.93M432.1 55.95v60.93M563.05 55.95v60.93"/>
		</g>
	</g>
	<path class="Note" d="M27.965 37.485c3.125 0 5.765.812 7.921 2.437 2.011 1.761 3.016 3.974 3.016 6.641 0 4.489-2.307 8.687-6.922 12.594-4.687 3.906-9.703 5.859-15.047 5.859-3.125 0-5.76-.813-7.906-2.438-2.021-1.76-3.031-3.974-3.031-6.64 0-4.49 2.344-8.688 7.031-12.594 4.563-3.906 9.542-5.859 14.938-5.859M116.14 37.485c3.125 0 5.766.812 7.922 2.437 2.011 1.761 3.016 3.974 3.016 6.641 0 4.489-2.307 8.687-6.922 12.594-4.688 3.906-9.703 5.859-15.047 5.859-3.125 0-5.76-.813-7.906-2.438-2.021-1.76-3.031-3.974-3.031-6.64 0-4.49 2.343-8.688 7.031-12.594 4.562-3.906 9.542-5.859 14.937-5.859M204.32 37.485c3.125 0 5.766.812 7.922 2.437 2.01 1.761 3.016 3.974 3.016 6.641 0 4.489-2.308 8.687-6.922 12.594-4.688 3.906-9.703 5.859-15.047 5.859-3.125 0-5.761-.813-7.906-2.438-2.021-1.76-3.032-3.974-3.032-6.64 0-4.49 2.344-8.688 7.032-12.594 4.562-3.906 9.541-5.859 14.937-5.859M321.5 37.485c3.125 0 5.766.812 7.922 2.437 2.01 1.761 3.015 3.974 3.015 6.641 0 4.489-2.307 8.687-6.921 12.594-4.688 3.906-9.704 5.859-15.047 5.859-3.125 0-5.761-.813-7.907-2.438-2.02-1.76-3.031-3.974-3.031-6.64 0-4.49 2.344-8.688 7.031-12.594 4.563-3.906 9.542-5.859 14.938-5.859M452.45 37.485c3.125 0 5.766.812 7.922 2.437 2.011 1.761 3.016 3.974 3.016 6.641 0 4.489-2.307 8.687-6.922 12.594-4.687 3.906-9.703 5.859-15.047 5.859-3.125 0-5.76-.813-7.906-2.438-2.021-1.76-3.031-3.974-3.031-6.64 0-4.49 2.343-8.688 7.031-12.594 4.562-3.906 9.542-5.859 14.937-5.859M583.4 37.485c3.125 0 5.766.812 7.922 2.437 2.01 1.761 3.015 3.974 3.015 6.641 0 4.489-2.307 8.687-6.921 12.594-4.688 3.906-9.704 5.859-15.047 5.859-3.125 0-5.761-.813-7.907-2.438-2.02-1.76-3.031-3.974-3.031-6.64 0-4.49 2.344-8.688 7.031-12.594 4.563-3.906 9.542-5.859 14.938-5.859"/>
	<path class="Rest" d="M728.9 30.735c1.89 0 3.32.52 4.3 1.562.98 1.177 1.5 2.287 1.56 3.328.14.979.46 2.084.98 3.313.59 1.041 1.33 1.562 2.24 1.562.72 0 1.8-.812 3.23-2.437 1.31-1.427 2.25-2.698 2.83-3.813.32-.646.78-.968 1.36-.968h.11c.65.062 1.1.385 1.36.968l-12.3 42c-.65.657-1.57.985-2.74.985s-2.08-.328-2.73-.985l11.72-32.625c-4.16 1.5-7.68 2.25-10.54 2.25-2.35 0-4.37-.75-6.07-2.25-1.76-1.427-2.64-3.312-2.64-5.656 0-2.021.72-3.714 2.16-5.078 1.43-1.438 3.15-2.156 5.17-2.156M817.08 30.735c1.89 0 3.32.52 4.3 1.562.98 1.177 1.5 2.287 1.56 3.328.14.979.46 2.084.98 3.313.59 1.041 1.33 1.562 2.24 1.562.72 0 1.8-.812 3.23-2.437 1.31-1.427 2.25-2.698 2.83-3.813.32-.646.78-.968 1.36-.968h.11c.65.062 1.1.385 1.36.968l-12.3 42c-.65.657-1.57.985-2.74.985s-2.08-.328-2.73-.985L829 43.625c-4.16 1.5-7.68 2.25-10.54 2.25-2.35 0-4.37-.75-6.07-2.25-1.76-1.427-2.64-3.312-2.64-5.656 0-2.021.72-3.714 2.16-5.078 1.43-1.438 3.15-2.156 5.17-2.156M905.26 30.735c1.89 0 3.32.52 4.3 1.562.98 1.177 1.5 2.287 1.56 3.328.14.979.46 2.084.98 3.313.59 1.041 1.33 1.562 2.24 1.562.72 0 1.8-.812 3.23-2.437 1.3-1.427 2.25-2.698 2.83-3.813.32-.646.78-.968 1.36-.968h.11c.65.062 1.1.385 1.36.968l-12.3 42c-.65.657-1.57.985-2.74.985s-2.08-.328-2.73-.985l11.72-32.625c-4.16 1.5-7.68 2.25-10.54 2.25-2.35 0-4.37-.75-6.07-2.25-1.76-1.427-2.64-3.312-2.64-5.656 0-2.021.72-3.714 2.16-5.078 1.43-1.438 3.15-2.156 5.17-2.156"/>
	<path class="Articulation" d="M43.062 10.75c1.24 0 1.86.617 1.86 1.852 0 1.234-.62 1.851-1.86 1.851L1.859 25.11c-.135.062-.333.093-.594.093C.422 25.203 0 24.552 0 23.25c0-1.041.458-1.661 1.375-1.859l25.094-6.438 13.968-2.343-13.968-2.344L1.375 3.813C.458 3.615 0 2.995 0 1.953 0 .651.422 0 1.265 0c.261 0 .459.037.594.11l41.203 10.64M336.6 10.75c1.239 0 1.859.617 1.859 1.852 0 1.234-.62 1.851-1.859 1.851L295.396 25.11c-.135.062-.333.093-.593.093-.844 0-1.266-.651-1.266-1.953 0-1.041.458-1.661 1.375-1.859l25.094-6.438 13.969-2.343-13.969-2.344-25.094-6.453c-.917-.198-1.375-.818-1.375-1.86 0-1.302.422-1.953 1.266-1.953.26 0 .458.037.593.11L336.6 10.75"/>
	<path class="Hook" d="M28.746 66.391c1.5 0 3.099 2.437 4.797 7.312 1.625 4.823 2.437 9.417 2.437 13.782 0 3.708-.911 7.385-2.734 11.031-1.886 3.906-4.13 7.292-6.735 10.156l-8.015 8.985c-2.469 2.864-4.682 6.182-6.641 9.953-1.823 3.645-2.734 7.359-2.734 11.14H5.996v-25h3.125c1.76-1.104 4.364-2.864 7.812-5.281 1.563-1.167 3.907-3.12 7.032-5.859 2.541-2.344 4.463-4.75 5.765-7.219 1.365-2.604 2.047-5.24 2.047-7.906 0-6.188-1.792-12.344-5.375-18.469v-.391c0-.583.198-1.067.594-1.453.521-.521 1.104-.781 1.75-.781M116.93 66.391c1.5 0 3.099 2.437 4.796 7.312 1.625 4.823 2.438 9.417 2.438 13.782 0 3.708-.911 7.385-2.734 11.031-1.886 3.906-4.131 7.292-6.735 10.156l-8.015 8.985c-2.469 2.864-4.683 6.182-6.641 9.953-1.823 3.645-2.734 7.359-2.734 11.14H94.18v-25h3.125c1.76-1.104 4.364-2.864 7.812-5.281 1.563-1.167 3.906-3.12 7.031-5.859 2.542-2.344 4.464-4.75 5.766-7.219 1.365-2.604 2.047-5.24 2.047-7.906 0-6.188-1.792-12.344-5.375-18.469v-.391c0-.583.198-1.067.594-1.453.52-.521 1.104-.781 1.75-.781M205.1 66.391c1.5 0 3.099 2.437 4.797 7.312 1.625 4.823 2.438 9.417 2.438 13.782 0 3.708-.912 7.385-2.735 11.031-1.885 3.906-4.13 7.292-6.734 10.156l-8.016 8.985c-2.468 2.864-4.682 6.182-6.64 9.953-1.823 3.645-2.735 7.359-2.735 11.14h-3.125v-25h3.125c1.761-1.104 4.365-2.864 7.813-5.281 1.562-1.167 3.906-3.12 7.031-5.859 2.542-2.344 4.464-4.75 5.766-7.219 1.364-2.604 2.047-5.24 2.047-7.906 0-6.188-1.792-12.344-5.375-18.469v-.391c0-.583.198-1.067.593-1.453.521-.521 1.105-.781 1.75-.781"/>
</svg>
