<?xml version="1.0" encoding="utf-8"?>
<svg xmlns="http://www.w3.org/2000/svg" viewBox="0 0 310.62 59.834">
	<title>Symbols indicating how lines in the Assistants’ chant should be scanned. The two lines consist of the following scanning symbols: unstressed, unstressed, stressed, foot boundary, unstressed, unstressed, stressed, semicolon starting a new line, unstressed, unstressed, stressed, foot boundary, unstressed, unstressed, stressed, semicolon.</title>
	<g stroke-width=".265">
		<path aria-label="(" d="m14.76 20.418q-4.482 0-8.046-1.395-3.567-1.413-6.714-4.326v-2.697q3.225 2.898 6.852 4.263 3.63 1.35 7.938 1.35 4.293 0 7.905-1.335 3.615-1.35 6.885-4.278v2.7q-3.162 2.928-6.729 4.32-3.582 1.398-8.031 1.398zm45 0q-4.482 0-8.046-1.395-3.567-1.413-6.714-4.326v-2.697q3.225 2.898 6.852 4.263 3.63 1.35 7.938 1.35 4.293 0 7.905-1.335 3.615-1.35 6.885-4.278v2.7q-3.162 2.928-6.729 4.32-3.582 1.398-8.031 1.398z"/>
		<path aria-label="|" d="m119.74 17.574h-29.736v-2.574h29.736zm15.264 12.162v-29.736h2.574v29.736z"/>
		<path aria-label="(" d="m164.76 20.418q-4.482 0-8.046-1.395-3.567-1.413-6.714-4.326v-2.697q3.225 2.898 6.852 4.263 3.63 1.35 7.938 1.35 4.293 0 7.905-1.335 3.615-1.35 6.885-4.278v2.7q-3.162 2.928-6.729 4.32-3.582 1.398-8.031 1.398zm45 0q-4.482 0-8.046-1.395-3.567-1.413-6.714-4.326v-2.697q3.225 2.898 6.852 4.263 3.63 1.35 7.938 1.35 4.293 0 7.905-1.335 3.615-1.35 6.885-4.278v2.7q-3.162 2.928-6.729 4.32-3.582 1.398-8.031 1.398z"/>
		<path aria-label="|" d="m269.74 17.574h-29.736v-2.574h29.736z"/>
		<path aria-label=";" d="m288.12 22.566v2.418q0 1.644-0.297 2.742-0.294 1.101-0.912 2.109h-1.908q1.458-2.109 1.458-4.062h-1.365v-3.21zm-3.027-10.356v-3.21h3.024v3.21z"/>
		<path aria-label="(" d="m37.26 50.418q-4.482 0-8.046-1.395-3.567-1.41-6.714-4.326v-2.697q3.225 2.898 6.852 4.263 3.63 1.35 7.938 1.35 4.293 0 7.905-1.335 3.612-1.35 6.885-4.278v2.7q-3.162 2.928-6.729 4.32-3.582 1.398-8.031 1.398zm45 0q-4.482 0-8.046-1.395-3.567-1.41-6.714-4.326v-2.697q3.225 2.898 6.852 4.263 3.63 1.35 7.938 1.35 4.293 0 7.905-1.335 3.612-1.35 6.885-4.278v2.7q-3.162 2.928-6.729 4.32-3.582 1.398-8.031 1.398z"/>
		<path aria-label="|" d="m142.24 47.574h-29.736v-2.574h29.736zm15.264 12.162v-29.736h2.574v29.736z"/>
		<path aria-label="(" d="m187.26 50.418q-4.482 0-8.046-1.395-3.567-1.41-6.714-4.326v-2.697q3.225 2.898 6.852 4.263 3.63 1.35 7.938 1.35 4.293 0 7.905-1.335 3.612-1.35 6.885-4.278v2.7q-3.162 2.928-6.729 4.32-3.582 1.398-8.031 1.398zm45 0q-4.482 0-8.046-1.395-3.567-1.41-6.714-4.326v-2.697q3.225 2.898 6.852 4.263 3.63 1.35 7.938 1.35 4.293 0 7.905-1.335 3.612-1.35 6.885-4.278v2.7q-3.162 2.928-6.729 4.32-3.582 1.398-8.031 1.398z"/>
		<path aria-label="|" d="m292.24 47.574h-29.736v-2.574h29.736z"/>
		<path aria-label=";" d="m310.62 52.566v2.418q0 1.644-0.297 2.742-0.294 1.101-0.912 2.109h-1.908q1.458-2.109 1.458-4.062h-1.365v-3.21zm-3.024-10.356v-3.21h3.024v3.21z"/>
	</g>
</svg>
