<?xml version="1.0" encoding="utf-8"?>
<svg xmlns="http://www.w3.org/2000/svg" version="1.2" viewBox="0 0 1092 119">
	<title>Musical notation indicating the rhythm of the line starting with “I went to sleep.” Each measure has two quarter notes, except the first measure and the last, which have one. The line consists of the following notes and rests: quarter note, stressed quarter note, quarter note, stressed quarter note, quarter note, stressed quarter note, quarter note, stressed quarter note, quarter note, stressed quarter note.</title>
	<g fill="none" stroke="#000" stroke-linejoin="bevel">
		<g stroke-width="4">
			<path class="BarLine" d="M111.18.25v102M339.79.25v102M568.4.25v102M796.97.25v102M1025.57.25v102"/>
		</g>
		<g stroke-linecap="round" stroke-width="3.25">
			<path class="Stem" d="M1.63 55.95v60.93M139.81 55.95v60.93M239.61 55.95v60.93M368.41 55.95v60.93M468.22 55.95v60.93M597.02 55.95v60.93M696.83 55.95v60.93M825.67 55.95v60.93M925.47 55.95v60.93M1054.27 55.95v60.93"/>
		</g>
	</g>
	<path class="Note" d="M21.969 37.484c3.125 0 5.766.812 7.922 2.437 2.01 1.761 3.016 3.974 3.016 6.641 0 4.49-2.308 8.688-6.922 12.594-4.688 3.906-9.703 5.859-15.047 5.859-3.125 0-5.761-.812-7.906-2.437C1.011 60.817 0 58.604 0 55.937c0-4.49 2.344-8.687 7.032-12.594 4.562-3.906 9.541-5.859 14.937-5.859M160.15 37.484c3.125 0 5.765.812 7.922 2.437 2.01 1.761 3.015 3.974 3.015 6.641 0 4.49-2.307 8.688-6.922 12.594-4.687 3.906-9.703 5.859-15.046 5.859-3.125 0-5.761-.812-7.907-2.437-2.021-1.761-3.031-3.974-3.031-6.641 0-4.49 2.344-8.687 7.031-12.594 4.563-3.906 9.542-5.859 14.938-5.859M259.95 37.484c3.125 0 5.765.812 7.921 2.437 2.011 1.761 3.016 3.974 3.016 6.641 0 4.49-2.307 8.688-6.922 12.594-4.687 3.906-9.703 5.859-15.047 5.859-3.125 0-5.76-.812-7.906-2.437-2.021-1.761-3.031-3.974-3.031-6.641 0-4.49 2.344-8.687 7.031-12.594 4.563-3.906 9.542-5.859 14.938-5.859M388.76 37.484c3.125 0 5.766.812 7.922 2.437 2.011 1.761 3.016 3.974 3.016 6.641 0 4.49-2.307 8.688-6.922 12.594-4.688 3.906-9.703 5.859-15.047 5.859-3.125 0-5.76-.812-7.906-2.437-2.021-1.761-3.031-3.974-3.031-6.641 0-4.49 2.343-8.687 7.031-12.594 4.562-3.906 9.541-5.859 14.937-5.859M488.56 37.484c3.125 0 5.766.812 7.922 2.437 2.01 1.761 3.016 3.974 3.016 6.641 0 4.49-2.308 8.688-6.922 12.594-4.688 3.906-9.703 5.859-15.047 5.859-3.125 0-5.761-.812-7.906-2.437-2.021-1.761-3.032-3.974-3.032-6.641 0-4.49 2.344-8.687 7.032-12.594 4.562-3.906 9.541-5.859 14.937-5.859M617.36 37.484c3.125 0 5.765.812 7.922 2.437 2.01 1.761 3.015 3.974 3.015 6.641 0 4.49-2.307 8.688-6.922 12.594-4.687 3.906-9.703 5.859-15.046 5.859-3.125 0-5.761-.812-7.907-2.437-2.021-1.761-3.031-3.974-3.031-6.641 0-4.49 2.344-8.687 7.031-12.594 4.563-3.906 9.542-5.859 14.938-5.859M717.17 37.484c3.125 0 5.765.812 7.921 2.437 2.011 1.761 3.016 3.974 3.016 6.641 0 4.49-2.307 8.688-6.922 12.594-4.687 3.906-9.703 5.859-15.047 5.859-3.125 0-5.76-.812-7.906-2.437-2.021-1.761-3.031-3.974-3.031-6.641 0-4.49 2.344-8.687 7.031-12.594 4.563-3.906 9.542-5.859 14.938-5.859M845.97 37.484c3.13 0 5.77.812 7.92 2.437 2.01 1.761 3.02 3.974 3.02 6.641 0 4.49-2.31 8.688-6.92 12.594-4.69 3.906-9.71 5.859-15.05 5.859-3.12 0-5.76-.812-7.91-2.437-2.02-1.761-3.03-3.974-3.03-6.641 0-4.49 2.35-8.687 7.03-12.594 4.57-3.906 9.55-5.859 14.94-5.859M945.78 37.484c3.12 0 5.76.812 7.92 2.437 2.01 1.761 3.01 3.974 3.01 6.641 0 4.49-2.3 8.688-6.92 12.594-4.69 3.906-9.7 5.859-15.05 5.859-3.12 0-5.76-.812-7.9-2.437-2.02-1.761-3.03-3.974-3.03-6.641 0-4.49 2.34-8.687 7.03-12.594 4.56-3.906 9.54-5.859 14.94-5.859M1074.6 37.484c3.12 0 5.77.812 7.92 2.437 2.01 1.761 3.02 3.974 3.02 6.641 0 4.49-2.31 8.688-6.92 12.594-4.69 3.906-9.71 5.859-15.05 5.859-3.13 0-5.76-.812-7.91-2.437-2.02-1.761-3.03-3.974-3.03-6.641 0-4.49 2.34-8.687 7.03-12.594 4.56-3.906 9.54-5.859 14.94-5.859"/>
	<path class="Articulation" d="M175.25 10.75c1.24 0 1.86.617 1.86 1.851s-.62 1.852-1.86 1.852l-41.203 10.656c-.135.062-.333.094-.593.094-.844 0-1.266-.651-1.266-1.953 0-1.042.458-1.662 1.375-1.86l25.094-6.437 13.968-2.344-13.968-2.344-25.094-6.453c-.917-.198-1.375-.818-1.375-1.859 0-1.302.422-1.953 1.266-1.953.26 0 .458.036.593.109L175.25 10.75M403.85 10.75c1.24 0 1.859.617 1.859 1.851s-.619 1.852-1.859 1.852l-41.203 10.656c-.136.062-.334.094-.594.094-.844 0-1.266-.651-1.266-1.953 0-1.042.459-1.662 1.375-1.86l25.094-6.437 13.969-2.344-13.969-2.344-25.094-6.453c-.916-.198-1.375-.818-1.375-1.859 0-1.302.422-1.953 1.266-1.953.26 0 .458.036.594.109L403.85 10.75M632.46 10.75c1.24 0 1.86.617 1.86 1.851s-.62 1.852-1.86 1.852l-41.203 10.656c-.135.062-.333.094-.593.094-.844 0-1.266-.651-1.266-1.953 0-1.042.458-1.662 1.375-1.86l25.094-6.437 13.968-2.344-13.968-2.344-25.094-6.453c-.917-.198-1.375-.818-1.375-1.859 0-1.302.422-1.953 1.266-1.953.26 0 .458.036.593.109L632.46 10.75M861.07 10.75c1.24 0 1.86.617 1.86 1.851s-.62 1.852-1.86 1.852l-41.2 10.656c-.14.062-.34.094-.6.094-.84 0-1.26-.651-1.26-1.953 0-1.042.46-1.662 1.37-1.86l25.1-6.437 13.96-2.344-13.96-2.344-25.1-6.453c-.91-.198-1.37-.818-1.37-1.859 0-1.302.42-1.953 1.26-1.953.26 0 .46.036.6.109l41.2 10.641M1089.7 10.75c1.24 0 1.86.617 1.86 1.851s-.62 1.852-1.86 1.852l-41.21 10.656c-.13.062-.33.094-.59.094-.84 0-1.27-.651-1.27-1.953 0-1.042.46-1.662 1.38-1.86l25.09-6.437 13.97-2.344-13.97-2.344-25.09-6.453c-.92-.198-1.38-.818-1.38-1.859 0-1.302.43-1.953 1.27-1.953.26 0 .46.036.59.109l41.21 10.641"/>
</svg>
