<?xml version="1.0" encoding="utf-8"?>
<svg xmlns="http://www.w3.org/2000/svg" version="1.2" viewBox="0 0 1030 141">
	<title>Musical notation indicating the rhythm of the two lines, “My work is done, / my task is o’er.” Each measure has three eighth notes, except the first measure, which has one. The lines consist of the following notes and rests: eighth note, stressed eighth note, eighth note, eighth note, eighth rest, eighth rest, eighth note, stressed eighth note, eighth note, eighth note.</title>
	<g fill="none" stroke="#000" stroke-linejoin="bevel">
		<g stroke-width="4">
			<path class="BarLine" d="M105.31.25v102M412.59.25v102M720.38.25v102M1027.67.25v102"/>
		</g>
		<g stroke-linecap="round" stroke-width="3.25">
			<path class="Stem" d="M1.63 55.95v82.8M133.93 55.95v82.8M226.69 55.95v82.8M319.45 55.95v82.8M627.24 55.95v82.8M749 55.95v82.8M841.77 55.95v82.8M934.57 55.95v82.8"/>
		</g>
	</g>
	<path class="Note" d="M21.969 37.485c3.125 0 5.766.812 7.922 2.437 2.01 1.761 3.016 3.974 3.016 6.641 0 4.489-2.308 8.687-6.922 12.594-4.688 3.906-9.703 5.859-15.047 5.859-3.125 0-5.761-.813-7.906-2.438C1.011 60.818 0 58.604 0 55.938c0-4.49 2.344-8.688 7.032-12.594 4.562-3.906 9.541-5.859 14.937-5.859M154.27 37.485c3.125 0 5.765.812 7.922 2.437 2.01 1.761 3.015 3.974 3.015 6.641 0 4.489-2.307 8.687-6.922 12.594-4.687 3.906-9.703 5.859-15.047 5.859-3.125 0-5.76-.813-7.906-2.438-2.021-1.76-3.031-3.974-3.031-6.64 0-4.49 2.344-8.688 7.031-12.594 4.563-3.906 9.542-5.859 14.938-5.859M247.03 37.485c3.125 0 5.766.812 7.922 2.437 2.011 1.761 3.016 3.974 3.016 6.641 0 4.489-2.307 8.687-6.922 12.594-4.687 3.906-9.703 5.859-15.047 5.859-3.125 0-5.76-.813-7.906-2.438-2.021-1.76-3.031-3.974-3.031-6.64 0-4.49 2.343-8.688 7.031-12.594 4.562-3.906 9.542-5.859 14.937-5.859M339.8 37.485c3.125 0 5.766.812 7.922 2.437 2.011 1.761 3.016 3.974 3.016 6.641 0 4.489-2.308 8.687-6.922 12.594-4.688 3.906-9.703 5.859-15.047 5.859-3.125 0-5.76-.813-7.906-2.438-2.021-1.76-3.031-3.974-3.031-6.64 0-4.49 2.343-8.688 7.031-12.594 4.562-3.906 9.541-5.859 14.937-5.859M647.58 37.485c3.125 0 5.765.812 7.922 2.437 2.01 1.761 3.015 3.974 3.015 6.641 0 4.489-2.307 8.687-6.922 12.594-4.687 3.906-9.703 5.859-15.047 5.859-3.125 0-5.76-.813-7.906-2.438-2.021-1.76-3.031-3.974-3.031-6.64 0-4.49 2.344-8.688 7.031-12.594 4.563-3.906 9.542-5.859 14.938-5.859M769.35 37.485c3.12 0 5.76.812 7.92 2.437 2.01 1.761 3.01 3.974 3.01 6.641 0 4.489-2.3 8.687-6.92 12.594-4.69 3.906-9.7 5.859-15.046 5.859-3.125 0-5.76-.813-7.906-2.438-2.021-1.76-3.031-3.974-3.031-6.64 0-4.49 2.344-8.688 7.031-12.594 4.563-3.906 9.542-5.859 14.942-5.859M862.11 37.485c3.12 0 5.76.812 7.92 2.437 2.01 1.761 3.01 3.974 3.01 6.641 0 4.489-2.3 8.687-6.92 12.594-4.68 3.906-9.7 5.859-15.04 5.859-3.13 0-5.76-.813-7.91-2.438-2.02-1.76-3.03-3.974-3.03-6.64 0-4.49 2.34-8.688 7.03-12.594 4.56-3.906 9.54-5.859 14.94-5.859M954.87 37.485c3.12 0 5.76.812 7.92 2.437 2.01 1.761 3.02 3.974 3.02 6.641 0 4.489-2.31 8.687-6.93 12.594-4.68 3.906-9.7 5.859-15.04 5.859-3.13 0-5.76-.813-7.91-2.438-2.02-1.76-3.03-3.974-3.03-6.64 0-4.49 2.34-8.688 7.03-12.594 4.56-3.906 9.54-5.859 14.94-5.859"/>
	<path class="Rest" d="M447.12 30.735c1.885 0 3.317.52 4.296 1.562.98 1.177 1.5 2.287 1.563 3.328.135.979.463 2.084.984 3.313.584 1.041 1.328 1.562 2.235 1.562.718 0 1.797-.812 3.234-2.437 1.302-1.427 2.245-2.698 2.828-3.813.323-.646.776-.968 1.36-.968h.109c.646.062 1.099.385 1.359.968l-12.297 42c-.656.657-1.57.985-2.742.985s-2.08-.328-2.726-.985l11.718-32.625c-4.166 1.5-7.682 2.25-10.546 2.25-2.344 0-4.365-.75-6.063-2.25-1.76-1.427-2.641-3.312-2.641-5.656 0-2.021.719-3.714 2.157-5.078 1.427-1.438 3.151-2.156 5.172-2.156M539.88 30.735c1.886 0 3.318.52 4.297 1.562.979 1.177 1.5 2.287 1.563 3.328.135.979.463 2.084.984 3.313.583 1.041 1.328 1.562 2.235 1.562.718 0 1.796-.812 3.234-2.437 1.302-1.427 2.245-2.698 2.828-3.813.323-.646.776-.968 1.359-.968h.11c.646.062 1.099.385 1.359.968l-12.297 42c-.656.657-1.57.985-2.742.985s-2.081-.328-2.726-.985l11.718-32.625c-4.166 1.5-7.682 2.25-10.547 2.25-2.343 0-4.364-.75-6.062-2.25-1.761-1.427-2.641-3.312-2.641-5.656 0-2.021.719-3.714 2.157-5.078 1.427-1.438 3.151-2.156 5.171-2.156"/>
	<path class="Articulation" d="M169.37 10.75c1.24 0 1.86.617 1.86 1.852 0 1.234-.62 1.851-1.86 1.851L128.167 25.11c-.135.062-.333.093-.594.093-.843 0-1.265-.651-1.265-1.953 0-1.041.458-1.661 1.375-1.859l25.094-6.438 13.968-2.343-13.968-2.344-25.094-6.453c-.917-.198-1.375-.818-1.375-1.86 0-1.302.422-1.953 1.265-1.953.261 0 .459.037.594.11l41.203 10.64M784.44 10.75c1.24 0 1.86.617 1.86 1.852 0 1.234-.62 1.851-1.86 1.851l-41.2 10.657c-.135.062-.333.093-.594.093-.843 0-1.265-.651-1.265-1.953 0-1.041.458-1.661 1.375-1.859l25.094-6.438 13.97-2.343-13.97-2.344-25.094-6.453c-.917-.198-1.375-.818-1.375-1.86 0-1.302.422-1.953 1.265-1.953.261 0 .459.037.594.11l41.2 10.64"/>
	<path class="Hook" d="M22.75 66.391c1.5 0 3.099 2.437 4.797 7.312 1.625 4.823 2.438 9.417 2.438 13.782 0 3.708-.912 7.385-2.735 11.031-1.885 3.906-4.13 7.292-6.734 10.156l-8.016 8.985c-2.468 2.864-4.682 6.182-6.64 9.953-1.823 3.645-2.735 7.359-2.735 11.14H0v-25h3.125c1.761-1.104 4.365-2.864 7.813-5.281 1.562-1.167 3.906-3.12 7.031-5.859 2.542-2.344 4.464-4.75 5.766-7.219 1.364-2.604 2.047-5.24 2.047-7.906 0-6.188-1.792-12.344-5.375-18.469v-.391c0-.583.197-1.067.593-1.453.521-.521 1.104-.781 1.75-.781M155.05 66.391c1.5 0 3.099 2.437 4.797 7.312 1.625 4.823 2.437 9.417 2.437 13.782 0 3.708-.911 7.385-2.734 11.031-1.886 3.906-4.13 7.292-6.734 10.156l-8.016 8.985c-2.469 2.864-4.682 6.182-6.641 9.953-1.823 3.645-2.734 7.359-2.734 11.14H132.3v-25h3.125c1.76-1.104 4.364-2.864 7.812-5.281 1.563-1.167 3.907-3.12 7.032-5.859 2.541-2.344 4.463-4.75 5.765-7.219 1.365-2.604 2.047-5.24 2.047-7.906 0-6.188-1.792-12.344-5.375-18.469v-.391c0-.583.198-1.067.594-1.453.521-.521 1.104-.781 1.75-.781M247.82 66.391c1.5 0 3.099 2.437 4.797 7.312 1.625 4.823 2.437 9.417 2.437 13.782 0 3.708-.911 7.385-2.734 11.031-1.886 3.906-4.131 7.292-6.735 10.156l-8.015 8.985c-2.469 2.864-4.683 6.182-6.641 9.953-1.823 3.645-2.734 7.359-2.734 11.14h-3.125v-25h3.125c1.76-1.104 4.364-2.864 7.812-5.281 1.563-1.167 3.906-3.12 7.031-5.859 2.542-2.344 4.464-4.75 5.766-7.219 1.365-2.604 2.047-5.24 2.047-7.906 0-6.188-1.792-12.344-5.375-18.469v-.391c0-.583.198-1.067.594-1.453.521-.521 1.104-.781 1.75-.781M340.58 66.391c1.5 0 3.098 2.437 4.796 7.312 1.625 4.823 2.438 9.417 2.438 13.782 0 3.708-.912 7.385-2.734 11.031-1.886 3.906-4.131 7.292-6.735 10.156l-8.015 8.985c-2.469 2.864-4.683 6.182-6.641 9.953-1.823 3.645-2.734 7.359-2.734 11.14h-3.125v-25h3.125c1.76-1.104 4.364-2.864 7.812-5.281 1.563-1.167 3.906-3.12 7.031-5.859 2.542-2.344 4.464-4.75 5.766-7.219 1.364-2.604 2.047-5.24 2.047-7.906 0-6.188-1.792-12.344-5.375-18.469v-.391c0-.583.198-1.067.594-1.453.52-.521 1.104-.781 1.75-.781M648.36 66.391c1.5 0 3.099 2.437 4.797 7.312 1.625 4.823 2.437 9.417 2.437 13.782 0 3.708-.911 7.385-2.734 11.031-1.885 3.906-4.13 7.292-6.734 10.156l-8.016 8.985c-2.469 2.864-4.682 6.182-6.641 9.953-1.823 3.645-2.734 7.359-2.734 11.14h-3.125v-25h3.125c1.76-1.104 4.365-2.864 7.812-5.281 1.563-1.167 3.907-3.12 7.032-5.859 2.541-2.344 4.463-4.75 5.765-7.219 1.365-2.604 2.047-5.24 2.047-7.906 0-6.188-1.791-12.344-5.375-18.469v-.391c0-.583.198-1.067.594-1.453.521-.521 1.104-.781 1.75-.781M770.13 66.391c1.5 0 3.1 2.437 4.79 7.312 1.63 4.823 2.44 9.417 2.44 13.782 0 3.708-.91 7.385-2.73 11.031-1.89 3.906-4.13 7.292-6.74 10.156l-8.013 8.985c-2.469 2.864-4.683 6.182-6.641 9.953-1.823 3.645-2.734 7.359-2.734 11.14h-3.125v-25h3.125c1.76-1.104 4.364-2.864 7.812-5.281 1.563-1.167 3.907-3.12 7.036-5.859 2.54-2.344 4.46-4.75 5.76-7.219 1.37-2.604 2.05-5.24 2.05-7.906 0-6.188-1.79-12.344-5.38-18.469v-.391c0-.583.2-1.067.6-1.453.52-.521 1.1-.781 1.75-.781M862.89 66.391c1.5 0 3.1 2.437 4.8 7.312 1.62 4.823 2.43 9.417 2.43 13.782 0 3.708-.91 7.385-2.73 11.031-1.89 3.906-4.13 7.292-6.74 10.156l-8.01 8.985c-2.47 2.864-4.68 6.182-6.64 9.953-1.82 3.645-2.74 7.359-2.74 11.14h-3.12v-25h3.12c1.76-1.104 4.37-2.864 7.82-5.281 1.56-1.167 3.9-3.12 7.03-5.859 2.54-2.344 4.46-4.75 5.76-7.219 1.37-2.604 2.05-5.24 2.05-7.906 0-6.188-1.79-12.344-5.38-18.469v-.391c0-.583.2-1.067.6-1.453.52-.521 1.1-.781 1.75-.781M955.65 66.391c1.5 0 3.1 2.437 4.8 7.312 1.62 4.823 2.43 9.417 2.43 13.782 0 3.708-.91 7.385-2.73 11.031-1.89 3.906-4.13 7.292-6.73 10.156l-8.02 8.985c-2.47 2.864-4.68 6.182-6.64 9.953-1.82 3.645-2.73 7.359-2.73 11.14h-3.13v-25h3.13c1.76-1.104 4.36-2.864 7.81-5.281 1.56-1.167 3.9-3.12 7.03-5.859 2.54-2.344 4.46-4.75 5.76-7.219 1.37-2.604 2.05-5.24 2.05-7.906 0-6.188-1.79-12.344-5.37-18.469v-.391c0-.583.19-1.067.59-1.453.52-.521 1.1-.781 1.75-.781"/>
</svg>
