<?xml version="1.0" encoding="utf-8"?>
<svg xmlns="http://www.w3.org/2000/svg" version="1.2" viewBox="0 0 1231.3 118.27">
	<title>Musical notation indicating the rhythm of the line. Each measure has two quarter notes, except the first measure and the last, which have one. The line consists of the following notes and rests: quarter note, quarter note, quarter note, quarter note, quarter note, quarter note, quarter rest, quarter rest, quarter rest, quarter rest.</title>
	<g fill="none" stroke="#000" stroke-linejoin="bevel">
		<g stroke-width="4">
			<path class="BarLine" d="M113.45 0v102M346.61 0v102M579.76 0v102M815.27 0v102M1050.77 0v102M1215.27 0v102M1229.27 0v102"/>
		</g>
		<g stroke-linecap="round" stroke-width="3.25">
			<path class="Stem" d="M1.63 55.7v60.93M142.08 55.7v60.93M244.15 55.7v60.93M375.23 55.7v60.93M477.31 55.7v60.93M608.38 55.7v60.93"/>
		</g>
	</g>
	<path class="Note" d="M21.969 37.234c3.125 0 5.766.812 7.922 2.437 2.01 1.761 3.016 3.974 3.016 6.641 0 4.49-2.308 8.688-6.922 12.594-4.688 3.906-9.703 5.859-15.047 5.859-3.125 0-5.761-.812-7.906-2.437C1.011 60.567 0 58.354 0 55.687 0 51.197 2.344 47 7.032 43.093c4.562-3.906 9.541-5.859 14.937-5.859M162.42 37.234c3.125 0 5.765.812 7.921 2.437 2.011 1.761 3.016 3.974 3.016 6.641 0 4.49-2.307 8.688-6.922 12.594-4.687 3.906-9.703 5.859-15.047 5.859-3.125 0-5.76-.812-7.906-2.437-2.021-1.761-3.031-3.974-3.031-6.641 0-4.49 2.344-8.687 7.031-12.594 4.563-3.906 9.542-5.859 14.938-5.859M264.5 37.234c3.125 0 5.766.812 7.922 2.437 2.01 1.761 3.015 3.974 3.015 6.641 0 4.49-2.307 8.688-6.921 12.594-4.688 3.906-9.704 5.859-15.047 5.859-3.125 0-5.761-.812-7.907-2.437-2.02-1.761-3.031-3.974-3.031-6.641 0-4.49 2.344-8.687 7.031-12.594 4.563-3.906 9.542-5.859 14.938-5.859M395.57 37.234c3.125 0 5.766.812 7.922 2.437 2.011 1.761 3.016 3.974 3.016 6.641 0 4.49-2.307 8.688-6.922 12.594-4.688 3.906-9.703 5.859-15.047 5.859-3.125 0-5.76-.812-7.906-2.437-2.021-1.761-3.031-3.974-3.031-6.641 0-4.49 2.343-8.687 7.031-12.594 4.562-3.906 9.542-5.859 14.937-5.859M497.65 37.234c3.125 0 5.765.812 7.922 2.437 2.01 1.761 3.015 3.974 3.015 6.641 0 4.49-2.307 8.688-6.922 12.594-4.687 3.906-9.703 5.859-15.046 5.859-3.125 0-5.761-.812-7.907-2.437-2.021-1.761-3.031-3.974-3.031-6.641 0-4.49 2.344-8.687 7.031-12.594 4.563-3.906 9.542-5.859 14.938-5.859M628.73 37.234c3.125 0 5.766.812 7.922 2.437 2.01 1.761 3.016 3.974 3.016 6.641 0 4.49-2.308 8.688-6.922 12.594-4.688 3.906-9.703 5.859-15.047 5.859-3.125 0-5.76-.812-7.906-2.437-2.021-1.761-3.032-3.974-3.032-6.641 0-4.49 2.344-8.687 7.032-12.594 4.562-3.906 9.541-5.859 14.937-5.859"/>
	<path class="Rest" d="M709.41 43.187c0-1.177.656-2.479 1.969-3.906.968-1.042 2.401-2.281 4.297-3.719 1.427-.969 2.823-2.432 4.187-4.391 1.302-1.885 1.953-3.937 1.953-6.156 0-2.604-.844-4.911-2.531-6.922l-3.516-4.203c-.26-.26-.39-.586-.39-.976 0-.391.192-.748.578-1.071.458-.333.849-.5 1.172-.5.458 0 .817.198 1.078.594l15.14 17.969c.646.844.969 1.687.969 2.531 0 1.177-.651 2.479-1.953 3.906-.844.917-2.239 2.157-4.187 3.719-1.5.906-2.933 2.37-4.297 4.391-1.302 1.885-1.953 3.937-1.953 6.156 0 2.74.781 5.052 2.343 6.937l8.391 9.86c.198.198.359.526.484.984 0 .448-.161.839-.484 1.172-.458.323-.849.484-1.172.484-.125 0-.646-.359-1.562-1.078-.98-.781-2.282-1.531-3.907-2.25-1.823-.708-3.614-1.062-5.375-1.062-1.625 0-2.958.453-4 1.359-.906.917-1.359 2.677-1.359 5.281 0 3.969.943 7.094 2.828 9.375.198.261.229.584.094.969-.125.261-.354.391-.688.391-.448 0-1.453-1.172-3.015-3.516-1.636-2.469-3.167-5.302-4.594-8.5-1.5-3.385-2.25-6.182-2.25-8.39 0-2.803 1.333-4.204 4-4.204 3.062 0 7.036 1.042 11.922 3.125l-13.188-15.828c-.656-.843-.984-1.687-.984-2.531M844.01 43.187c0-1.177.65-2.479 1.96-3.906.97-1.042 2.41-2.281 4.3-3.719 1.43-.969 2.82-2.432 4.19-4.391 1.3-1.885 1.95-3.937 1.95-6.156 0-2.604-.84-4.911-2.53-6.922l-3.51-4.203c-.27-.26-.4-.586-.4-.976 0-.391.2-.748.58-1.071.46-.333.85-.5 1.17-.5.46 0 .82.198 1.08.594l15.14 17.969c.65.844.97 1.687.97 2.531 0 1.177-.65 2.479-1.95 3.906-.84.917-2.24 2.157-4.19 3.719-1.5.906-2.93 2.37-4.3 4.391-1.3 1.885-1.95 3.937-1.95 6.156 0 2.74.78 5.052 2.35 6.937l8.39 9.86c.19.198.36.526.48.984 0 .448-.16.839-.48 1.172-.46.323-.85.484-1.18.484-.12 0-.64-.359-1.56-1.078-.98-.781-2.28-1.531-3.9-2.25-1.83-.708-3.62-1.062-5.38-1.062-1.62 0-2.96.453-4 1.359-.91.917-1.36 2.677-1.36 5.281 0 3.969.94 7.094 2.83 9.375.2.261.23.584.09.969-.12.261-.35.391-.68.391-.45 0-1.46-1.172-3.02-3.516-1.64-2.469-3.17-5.302-4.59-8.5-1.5-3.385-2.25-6.182-2.25-8.39 0-2.803 1.33-4.204 4-4.204 3.06 0 7.03 1.042 11.92 3.125l-13.19-15.828c-.66-.843-.98-1.687-.98-2.531M946.08 43.187c0-1.177.66-2.479 1.97-3.906.97-1.042 2.4-2.281 4.3-3.719 1.43-.969 2.82-2.432 4.19-4.391 1.3-1.885 1.95-3.937 1.95-6.156 0-2.604-.85-4.911-2.53-6.922l-3.52-4.203c-.26-.26-.39-.586-.39-.976 0-.391.19-.748.58-1.071.46-.333.85-.5 1.17-.5.46 0 .82.198 1.08.594l15.14 17.969c.65.844.97 1.687.97 2.531 0 1.177-.65 2.479-1.95 3.906-.85.917-2.24 2.157-4.19 3.719-1.5.906-2.93 2.37-4.3 4.391-1.3 1.885-1.95 3.937-1.95 6.156 0 2.74.78 5.052 2.34 6.937l8.39 9.86c.2.198.36.526.49.984 0 .448-.16.839-.49 1.172-.46.323-.85.484-1.17.484-.12 0-.65-.359-1.56-1.078-.98-.781-2.28-1.531-3.91-2.25-1.82-.708-3.61-1.062-5.37-1.062-1.63 0-2.96.453-4 1.359-.91.917-1.36 2.677-1.36 5.281 0 3.969.94 7.094 2.83 9.375.19.261.22.584.09.969-.13.261-.35.391-.69.391-.45 0-1.45-1.172-3.01-3.516-1.64-2.469-3.17-5.302-4.6-8.5-1.5-3.385-2.25-6.182-2.25-8.39 0-2.803 1.34-4.204 4-4.204 3.06 0 7.04 1.042 11.92 3.125l-13.18-15.828c-.66-.843-.99-1.687-.99-2.531M1079.5 43.187c0-1.177.66-2.479 1.97-3.906.97-1.042 2.4-2.281 4.3-3.719 1.43-.969 2.82-2.432 4.19-4.391 1.3-1.885 1.95-3.937 1.95-6.156 0-2.604-.84-4.911-2.53-6.922l-3.52-4.203c-.26-.26-.39-.586-.39-.976 0-.391.19-.748.58-1.071.46-.333.85-.5 1.17-.5.46 0 .82.198 1.08.594l15.14 17.969c.65.844.97 1.687.97 2.531 0 1.177-.65 2.479-1.95 3.906-.85.917-2.24 2.157-4.19 3.719-1.5.906-2.93 2.37-4.3 4.391-1.3 1.885-1.95 3.937-1.95 6.156 0 2.74.78 5.052 2.34 6.937l8.39 9.86c.2.198.36.526.49.984 0 .448-.16.839-.49 1.172-.46.323-.85.484-1.17.484-.12 0-.65-.359-1.56-1.078-.98-.781-2.28-1.531-3.91-2.25-1.82-.708-3.61-1.062-5.37-1.062-1.63 0-2.96.453-4 1.359-.91.917-1.36 2.677-1.36 5.281 0 3.969.94 7.094 2.83 9.375.19.261.22.584.09.969-.13.261-.35.391-.69.391-.45 0-1.45-1.172-3.01-3.516-1.64-2.469-3.17-5.302-4.6-8.5-1.5-3.385-2.25-6.182-2.25-8.39 0-2.803 1.34-4.204 4-4.204 3.07 0 7.04 1.042 11.92 3.125l-13.18-15.828c-.66-.843-.99-1.687-.99-2.531"/>
</svg>
