<?xml version="1.0" encoding="utf-8"?>
<svg xmlns="http://www.w3.org/2000/svg" version="1.2" viewBox="0 0 797.68 140.4">
	<title>Musical notation indicating the rhythm of lines in the Assistants’ chant. Each measure has three eighth notes, except the first measure, which has two. The line consists of the following notes and rests: eighth note, eighth note, stressed eighth note, eighth note, eighth note, stressed eighth note, eighth rest, eighth rest.</title>
	<g fill="none" stroke="#000" stroke-linejoin="bevel">
		<g stroke-width="4">
			<path class="BarLine" d="M189.01.25v102M492.07.25v102M795.67.25v102"/>
		</g>
		<g stroke-linecap="round" stroke-width="3.25">
			<path class="Stem" d="M1.63 55.95v82.804M95.13 55.95v82.804M217.63 55.95v82.804M308.99 55.95v82.804M400.34 55.95v82.804M520.7 55.95v82.804"/>
		</g>
	</g>
	<path class="Note" d="M21.969 37.485c3.125 0 5.766.812 7.922 2.437 2.01 1.761 3.016 3.974 3.016 6.641 0 4.489-2.308 8.687-6.922 12.594-4.688 3.906-9.703 5.859-15.047 5.859-3.125 0-5.761-.813-7.906-2.438C1.011 60.818 0 58.604 0 55.938c0-4.49 2.344-8.688 7.032-12.594 4.562-3.906 9.541-5.859 14.937-5.859M115.47 37.485c3.125 0 5.765.812 7.922 2.437 2.01 1.761 3.015 3.974 3.015 6.641 0 4.489-2.307 8.687-6.922 12.594-4.687 3.906-9.703 5.859-15.047 5.859-3.125 0-5.76-.813-7.906-2.438-2.021-1.76-3.031-3.974-3.031-6.64 0-4.49 2.344-8.688 7.031-12.594 4.563-3.906 9.542-5.859 14.938-5.859M237.97 37.485c3.125 0 5.766.812 7.922 2.437 2.011 1.761 3.016 3.974 3.016 6.641 0 4.489-2.308 8.687-6.922 12.594-4.688 3.906-9.703 5.859-15.047 5.859-3.125 0-5.76-.813-7.906-2.438-2.021-1.76-3.031-3.974-3.031-6.64 0-4.49 2.343-8.688 7.031-12.594 4.562-3.906 9.541-5.859 14.937-5.859M329.33 37.485c3.125 0 5.766.812 7.922 2.437 2.01 1.761 3.016 3.974 3.016 6.641 0 4.489-2.308 8.687-6.922 12.594-4.688 3.906-9.703 5.859-15.047 5.859-3.125 0-5.761-.813-7.906-2.438-2.021-1.76-3.032-3.974-3.032-6.64 0-4.49 2.344-8.688 7.032-12.594 4.562-3.906 9.541-5.859 14.937-5.859M420.68 37.485c3.125 0 5.765.812 7.922 2.437 2.01 1.761 3.015 3.974 3.015 6.641 0 4.489-2.307 8.687-6.922 12.594-4.687 3.906-9.703 5.859-15.047 5.859-3.125 0-5.76-.813-7.906-2.438-2.021-1.76-3.031-3.974-3.031-6.64 0-4.49 2.344-8.688 7.031-12.594 4.563-3.906 9.542-5.859 14.938-5.859M541.04 37.485c3.125 0 5.766.812 7.922 2.437 2.011 1.761 3.016 3.974 3.016 6.641 0 4.489-2.307 8.687-6.922 12.594-4.687 3.906-9.703 5.859-15.047 5.859-3.125 0-5.76-.813-7.906-2.438-2.021-1.76-3.031-3.974-3.031-6.64 0-4.49 2.343-8.688 7.031-12.594 4.562-3.906 9.542-5.859 14.937-5.859"/>
	<path class="Rest" d="M617.64 30.735c1.885 0 3.318.52 4.297 1.562.979 1.177 1.5 2.287 1.562 3.328.136.979.464 2.084.985 3.313.583 1.041 1.328 1.562 2.234 1.562.719 0 1.797-.812 3.234-2.437 1.302-1.427 2.245-2.698 2.828-3.813.323-.646.777-.968 1.36-.968h.109c.646.062 1.099.385 1.36.968l-12.297 42c-.657.657-1.571.985-2.742.985-1.172 0-2.081-.328-2.727-.985l11.719-32.625c-4.167 1.5-7.683 2.25-10.547 2.25-2.344 0-4.365-.75-6.063-2.25-1.76-1.427-2.64-3.312-2.64-5.656 0-2.021.718-3.714 2.156-5.078 1.427-1.438 3.151-2.156 5.172-2.156M709.17 30.735c1.885 0 3.317.52 4.297 1.562.979 1.177 1.5 2.287 1.562 3.328.136.979.464 2.084.985 3.313.583 1.041 1.328 1.562 2.234 1.562.719 0 1.797-.812 3.234-2.437 1.302-1.427 2.245-2.698 2.828-3.813.323-.646.776-.968 1.36-.968h.109c.646.062 1.099.385 1.36.968l-12.297 42c-.657.657-1.571.985-2.743.985-1.171 0-2.08-.328-2.726-.985l11.719-32.625c-4.167 1.5-7.683 2.25-10.547 2.25-2.344 0-4.365-.75-6.063-2.25-1.76-1.427-2.64-3.312-2.64-5.656 0-2.021.718-3.714 2.156-5.078 1.427-1.438 3.151-2.156 5.172-2.156"/>
	<path class="Articulation" d="M253.07 10.75c1.24 0 1.859.617 1.859 1.852 0 1.234-.619 1.851-1.859 1.851L211.867 25.11c-.136.062-.334.093-.594.093-.844 0-1.266-.651-1.266-1.953 0-1.041.459-1.661 1.375-1.859l25.094-6.438 13.969-2.343-13.969-2.344-25.094-6.453c-.916-.198-1.375-.818-1.375-1.86 0-1.302.422-1.953 1.266-1.953.26 0 .458.037.594.11l41.203 10.64M556.14 10.75c1.24 0 1.859.617 1.859 1.852 0 1.234-.619 1.851-1.859 1.851L514.937 25.11c-.135.062-.333.093-.594.093-.844 0-1.265-.651-1.265-1.953 0-1.041.458-1.661 1.375-1.859l25.093-6.438 13.969-2.343-13.969-2.344-25.093-6.453c-.917-.198-1.375-.818-1.375-1.86 0-1.302.421-1.953 1.265-1.953.261 0 .459.037.594.11l41.203 10.64"/>
	<path class="Hook" d="M22.75 66.391c1.5 0 3.099 2.437 4.797 7.312 1.625 4.823 2.438 9.417 2.438 13.782 0 3.708-.912 7.385-2.735 11.031-1.885 3.906-4.13 7.292-6.734 10.156l-8.016 8.985c-2.468 2.864-4.682 6.182-6.64 9.953-1.823 3.645-2.735 7.359-2.735 11.14H0v-25h3.125c1.761-1.104 4.365-2.864 7.813-5.281 1.562-1.167 3.906-3.12 7.031-5.859 2.542-2.344 4.464-4.75 5.766-7.219 1.364-2.604 2.047-5.24 2.047-7.906 0-6.188-1.792-12.344-5.375-18.469v-.391c0-.583.197-1.067.593-1.453.521-.521 1.104-.781 1.75-.781M116.25 66.391c1.5 0 3.099 2.437 4.797 7.312 1.625 4.823 2.437 9.417 2.437 13.782 0 3.708-.911 7.385-2.734 11.031-1.886 3.906-4.13 7.292-6.734 10.156L106 117.657c-2.469 2.864-4.682 6.182-6.641 9.953-1.823 3.645-2.734 7.359-2.734 11.14H93.5v-25h3.125c1.76-1.104 4.364-2.864 7.812-5.281 1.563-1.167 3.907-3.12 7.032-5.859 2.541-2.344 4.463-4.75 5.765-7.219 1.365-2.604 2.047-5.24 2.047-7.906 0-6.188-1.792-12.344-5.375-18.469v-.391c0-.583.198-1.067.594-1.453.521-.521 1.104-.781 1.75-.781M238.75 66.391c1.5 0 3.098 2.437 4.796 7.312 1.625 4.823 2.438 9.417 2.438 13.782 0 3.708-.912 7.385-2.734 11.031-1.886 3.906-4.131 7.292-6.735 10.156l-8.015 8.985c-2.469 2.864-4.683 6.182-6.641 9.953-1.823 3.645-2.734 7.359-2.734 11.14H216v-25h3.125c1.76-1.104 4.364-2.864 7.812-5.281 1.563-1.167 3.906-3.12 7.031-5.859 2.542-2.344 4.464-4.75 5.766-7.219 1.364-2.604 2.047-5.24 2.047-7.906 0-6.188-1.792-12.344-5.375-18.469v-.391c0-.583.198-1.067.594-1.453.52-.521 1.104-.781 1.75-.781M330.11 66.391c1.5 0 3.099 2.437 4.797 7.312 1.625 4.823 2.438 9.417 2.438 13.782 0 3.708-.912 7.385-2.735 11.031-1.885 3.906-4.13 7.292-6.734 10.156l-8.016 8.985c-2.468 2.864-4.682 6.182-6.64 9.953-1.823 3.645-2.735 7.359-2.735 11.14h-3.125v-25h3.125c1.761-1.104 4.365-2.864 7.813-5.281 1.562-1.167 3.906-3.12 7.031-5.859 2.542-2.344 4.464-4.75 5.766-7.219 1.364-2.604 2.047-5.24 2.047-7.906 0-6.188-1.792-12.344-5.375-18.469v-.391c0-.583.197-1.067.593-1.453.521-.521 1.104-.781 1.75-.781M421.47 66.391c1.5 0 3.099 2.437 4.797 7.312 1.625 4.823 2.437 9.417 2.437 13.782 0 3.708-.911 7.385-2.734 11.031-1.885 3.906-4.13 7.292-6.734 10.156l-8.016 8.985c-2.469 2.864-4.682 6.182-6.641 9.953-1.823 3.645-2.734 7.359-2.734 11.14h-3.125v-25h3.125c1.76-1.104 4.365-2.864 7.812-5.281 1.563-1.167 3.907-3.12 7.032-5.859 2.541-2.344 4.463-4.75 5.765-7.219 1.365-2.604 2.047-5.24 2.047-7.906 0-6.188-1.791-12.344-5.375-18.469v-.391c0-.583.198-1.067.594-1.453.521-.521 1.104-.781 1.75-.781M541.82 66.391c1.5 0 3.099 2.437 4.797 7.312 1.625 4.823 2.437 9.417 2.437 13.782 0 3.708-.911 7.385-2.734 11.031-1.886 3.906-4.13 7.292-6.735 10.156l-8.015 8.985c-2.469 2.864-4.683 6.182-6.641 9.953-1.823 3.645-2.734 7.359-2.734 11.14h-3.125v-25h3.125c1.76-1.104 4.364-2.864 7.812-5.281 1.563-1.167 3.906-3.12 7.031-5.859 2.542-2.344 4.464-4.75 5.766-7.219 1.365-2.604 2.047-5.24 2.047-7.906 0-6.188-1.792-12.344-5.375-18.469v-.391c0-.583.198-1.067.594-1.453.521-.521 1.104-.781 1.75-.781"/>
</svg>
